<svg width="192" height="53" viewBox="0 0 192 53" fill="none" xmlns="http://www.w3.org/2000/svg">
<path d="M28.5649 27.7097C29.761 27.7097 30.7307 28.6793 30.7307 29.8755V30.6949C30.7307 32.3437 29.3941 33.6802 27.7454 33.6802H27.4527C24.487 33.6802 22.3993 32.5485 21.1895 30.2852C19.2384 33.0558 16.2921 34.4412 12.3508 34.4412C9.64197 34.4412 6.32174 36.3937 6.32174 39.1025V42.2263C6.32174 43.972 4.90657 45.3871 3.16087 45.3871C1.41517 45.3871 0 43.972 0 42.2263L0 7.57377C0 5.82807 1.41517 4.4129 3.16087 4.4129C4.90657 4.4129 6.32174 5.82807 6.32174 7.57377V21.7391C6.32174 23.8854 6.90709 25.5634 8.07778 26.7731C9.24847 27.9438 10.8289 28.5292 12.8191 28.5292C15.0824 28.5292 16.897 27.8463 18.2628 26.4805C19.6286 25.0756 20.3115 22.9294 20.3115 20.0416V7.57376C20.3115 5.82806 21.7267 4.4129 23.4724 4.4129C25.2181 4.4129 26.6333 5.82806 26.6333 7.57376V25.778C26.6333 26.3634 26.8089 26.8317 27.1601 27.1829C27.5113 27.5341 27.9795 27.7097 28.5649 27.7097Z" fill="white"/>
<path d="M43.0394 21.227C43.0394 24.5487 45.7321 27.2414 49.0538 27.2414H56.5024C58.2804 27.2414 59.7218 28.6828 59.7218 30.4608C59.7218 32.2388 58.2804 33.6802 56.5024 33.6802H48.0149C41.5493 33.6802 36.3079 28.4388 36.3079 21.9733V7.77856C36.3079 5.91971 37.8148 4.41282 39.6737 4.41282C41.5325 4.41282 43.0394 5.91971 43.0394 7.77856V21.227Z" fill="white"/>
<path d="M70.7816 21.7391C69.5382 21.7391 68.591 22.9037 69.1455 24.0167C69.722 25.1739 70.5363 26.1318 71.5883 26.8902C73.2663 28.0609 75.315 28.6462 77.7345 28.6462C79.9823 28.6462 81.8537 28.1035 83.3487 27.0181C84.6266 26.0903 86.3377 25.6319 87.7012 26.4285C89.2126 27.3116 89.6827 29.3244 88.4161 30.5327C85.6846 33.1383 82.1046 34.4412 77.6759 34.4412C72.9151 34.4412 69.0713 32.9973 66.1446 30.1096C63.2179 27.1829 61.7545 23.4952 61.7545 19.0466C61.7545 14.676 63.1983 11.0273 66.0861 8.10058C68.9738 5.13482 72.681 3.65195 77.2076 3.65195C81.5002 3.65195 85.0122 5.15433 87.7439 8.15911C90.5145 11.1639 91.8998 14.8125 91.8998 19.1051C91.8998 20.6236 90.5378 21.7391 89.0192 21.7391H70.7816ZM68.3104 16.5881H85.5195C85.0903 14.2077 84.0952 12.4126 82.5343 11.2029C81.0124 9.9932 79.2173 9.38834 77.1491 9.38834C74.8077 9.38834 72.8566 10.0322 71.2956 11.32C69.7347 12.6077 68.7396 14.3638 68.3104 16.5881Z" fill="white"/>
<path d="M120.471 7.57377C120.471 5.82807 121.886 4.4129 123.632 4.4129C125.377 4.4129 126.792 5.82807 126.792 7.57377V30.5193C126.792 32.265 125.377 33.6802 123.632 33.6802C121.886 33.6802 120.471 32.265 120.471 30.5193V29.4657C118.09 32.7827 114.676 34.4412 110.227 34.4412C106.208 34.4412 102.774 32.9583 99.925 29.9925C97.0763 26.9878 95.652 23.3391 95.652 19.0466C95.652 14.715 97.0763 11.0663 99.925 8.10058C102.774 5.13482 106.208 3.65195 110.227 3.65195C114.676 3.65195 118.09 5.29092 120.471 8.56885V7.57377ZM104.608 25.778C106.364 27.5341 108.569 28.4121 111.222 28.4121C113.876 28.4121 116.081 27.5341 117.837 25.778C119.593 23.983 120.471 21.7391 120.471 19.0466C120.471 16.354 119.593 14.1296 117.837 12.3736C116.081 10.5785 113.876 9.68101 111.222 9.68101C108.569 9.68101 106.364 10.5785 104.608 12.3736C102.852 14.1296 101.974 16.354 101.974 19.0466C101.974 21.7391 102.852 23.983 104.608 25.778Z" fill="white"/>
<path d="M140.483 9.32981C141.648 6.68585 143.56 5.005 146.216 4.28725C147.983 3.80993 149.497 5.36978 149.497 7.20001C149.497 9.11419 147.836 10.5517 145.998 11.0862C144.984 11.3811 144.043 11.8492 143.175 12.4907C141.38 13.7784 140.483 15.9247 140.483 18.9295V30.5193C140.483 32.265 139.067 33.6802 137.322 33.6802C135.576 33.6802 134.161 32.265 134.161 30.5193V7.57377C134.161 5.82807 135.576 4.4129 137.322 4.4129C139.067 4.4129 140.483 5.82807 140.483 7.57377V9.32981Z" fill="white"/>
<path d="M169.562 3.65195C172.918 3.65195 175.631 4.72508 177.699 6.87135C179.767 9.01762 180.801 11.9639 180.801 15.7101V30.5194C180.801 32.265 179.386 33.6802 177.64 33.6802C175.895 33.6802 174.479 32.265 174.479 30.5193V16.354C174.479 14.1687 173.894 12.4907 172.723 11.32C171.553 10.1493 169.953 9.56394 167.924 9.56394C165.699 9.56394 163.904 10.2664 162.538 11.6712C161.173 13.037 160.49 15.1442 160.49 17.9929V30.5193C160.49 32.265 159.074 33.6802 157.329 33.6802C155.583 33.6802 154.168 32.265 154.168 30.5193V7.57376C154.168 5.82806 155.583 4.4129 157.329 4.4129C159.074 4.4129 160.49 5.82806 160.49 7.57376V8.15911C162.402 5.15433 165.426 3.65195 169.562 3.65195Z" fill="white"/>
<path d="M68.6057 52.6061C68.0836 52.6061 67.6232 52.5159 67.2245 52.3355C66.8353 52.1457 66.5315 51.8894 66.3131 51.5666C66.0948 51.2343 65.9856 50.8451 65.9856 50.3989C65.9856 49.9812 66.0758 49.6063 66.2562 49.274C66.446 48.9417 66.7356 48.6617 67.1248 48.4339C67.514 48.206 68.0029 48.0446 68.5915 47.9497L70.5387 47.6286C70.921 47.5656 71.2686 47.8605 71.2686 48.248C71.2686 48.553 71.0493 48.8139 70.7488 48.8664L68.9048 49.1886C68.4776 49.2645 68.1643 49.4022 67.9649 49.6015C67.7656 49.7914 67.6659 50.0382 67.6659 50.342C67.6659 50.6363 67.7751 50.8783 67.9934 51.0682C68.2213 51.2486 68.5108 51.3388 68.862 51.3388C69.2987 51.3388 69.6785 51.2438 70.0012 51.054C70.3335 50.8641 70.5898 50.6125 70.7702 50.2993C70.9505 49.9765 71.0407 49.6205 71.0407 49.2313V47.252C71.0407 46.8722 70.8983 46.5637 70.6135 46.3264C70.3382 46.0796 69.968 45.9561 69.5028 45.9561C69.0756 45.9561 68.7007 46.0701 68.3779 46.2979C68.2918 46.3579 68.2118 46.4229 68.1379 46.493C67.8193 46.7949 67.3498 46.9871 66.9573 46.7908C66.6073 46.6159 66.4366 46.1945 66.6717 45.8817C66.7774 45.741 66.9 45.6092 67.0394 45.4862C67.3621 45.192 67.7371 44.9641 68.1643 44.8027C68.601 44.6414 69.0614 44.5607 69.5455 44.5607C70.1531 44.5607 70.6895 44.6746 71.1546 44.9024C71.6293 45.1302 71.9948 45.4483 72.2511 45.8565C72.5169 46.2552 72.6498 46.7203 72.6498 47.252V51.6663C72.6498 52.0909 72.3055 52.4352 71.8809 52.4352H71.7643C71.404 52.4352 71.1119 52.1431 71.1119 51.7828V51.1824C71.1119 51.1068 71.1784 51.0484 71.2534 51.0582C71.342 51.0697 71.3901 51.1675 71.3407 51.2419C71.1767 51.4884 70.977 51.7059 70.7417 51.8941C70.4664 52.1219 70.1484 52.2976 69.7876 52.421C69.4364 52.5444 69.0424 52.6061 68.6057 52.6061Z" fill="white"/>
<path d="M82.1467 52.6061C81.3967 52.6061 80.699 52.4684 80.0534 52.1931C79.4174 51.9178 78.8573 51.5381 78.3732 51.054C77.8985 50.5603 77.5283 49.9812 77.2625 49.3167C76.9967 48.6522 76.8638 47.9212 76.8638 47.1238C76.8638 46.3359 76.9919 45.6096 77.2482 44.9451C77.514 44.2711 77.8843 43.692 78.3589 43.2079C78.8336 42.7142 79.3889 42.3345 80.025 42.0687C80.661 41.7934 81.3587 41.6558 82.1182 41.6558C82.8682 41.6558 83.5374 41.7839 84.126 42.0402C84.7241 42.2965 85.2272 42.6336 85.6354 43.0513C85.8475 43.2634 86.0289 43.4858 86.1795 43.7185C86.4117 44.0771 86.2249 44.5323 85.8405 44.719C85.4017 44.9321 84.883 44.7095 84.5827 44.3251C84.4036 44.0957 84.1896 43.8942 83.9409 43.7205C83.4377 43.3598 82.8302 43.1794 82.1182 43.1794C81.4157 43.1794 80.7939 43.3455 80.2528 43.6778C79.7117 44.0101 79.2892 44.4705 78.9855 45.059C78.6912 45.6476 78.544 46.3359 78.544 47.1238C78.544 47.9117 78.6959 48.6047 78.9997 49.2028C79.313 49.7914 79.7402 50.2518 80.2813 50.584C80.8224 50.9068 81.4442 51.0682 82.1467 51.0682C82.7353 51.0682 83.2716 50.9495 83.7558 50.7122C84.2494 50.4654 84.6434 50.1236 84.9377 49.6869C85.2319 49.2408 85.3791 48.7234 85.3791 48.1348V47.8821C85.3791 47.7 85.5951 47.6042 85.7301 47.7265C85.8725 47.8554 85.7812 48.0921 85.5891 48.0921H82.8302C82.437 48.0921 82.1182 47.7733 82.1182 47.3801C82.1182 46.9869 82.437 46.6681 82.8302 46.6681H86.0484C86.5989 46.6681 87.0451 47.1144 87.0451 47.6649C87.0451 48.4433 86.9122 49.1411 86.6464 49.7581C86.3806 50.3657 86.0199 50.8831 85.5642 51.3103C85.1085 51.7375 84.5864 52.0602 83.9978 52.2786C83.4093 52.4969 82.7922 52.6061 82.1467 52.6061Z" fill="white"/>
<path d="M91.3343 52.4352C90.8742 52.4352 90.5013 52.0623 90.5013 51.6022V44.7315C90.5013 43.953 89.8701 43.3218 89.0915 43.3218H88.4294C88.0165 43.3218 87.6818 42.9871 87.6818 42.5742C87.6818 42.1613 88.0165 41.8266 88.4294 41.8266H94.1965C94.6093 41.8266 94.944 42.1613 94.944 42.5742C94.944 42.9871 94.6093 43.3218 94.1965 43.3218H93.5557C92.7889 43.3218 92.1673 43.9434 92.1673 44.7102V51.6022C92.1673 52.0623 91.7943 52.4352 91.3343 52.4352Z" fill="white"/>
<path d="M98.6594 52.6061C97.8904 52.6061 97.2069 52.4305 96.6089 52.0792C96.0203 51.7185 95.5599 51.2343 95.2276 50.6268C94.8954 50.0097 94.7292 49.3215 94.7292 48.562C94.7292 47.7836 94.8954 47.0953 95.2276 46.4973C95.5694 45.8992 96.025 45.4293 96.5946 45.0875C97.1642 44.7363 97.8097 44.5607 98.5312 44.5607C99.1103 44.5607 99.6277 44.6603 100.083 44.8597C100.539 45.059 100.923 45.3343 101.237 45.6856C101.55 46.0273 101.787 46.4213 101.949 46.8675C102.12 47.3137 102.205 47.7883 102.205 48.2915C102.205 48.4149 102.2 48.543 102.191 48.6759C102.175 48.8958 101.979 49.0462 101.759 49.0462H96.6373C96.2834 49.0462 95.9966 48.7593 95.9966 48.4054C95.9966 48.0515 96.2834 47.7646 96.6373 47.7646H100.713C100.877 47.7646 100.947 47.9734 100.817 48.0728C100.69 48.1685 100.503 48.0545 100.506 47.8963C100.512 47.6111 100.461 47.3488 100.354 47.1096C100.202 46.7393 99.9647 46.4498 99.6419 46.2409C99.3286 46.0226 98.9584 45.9134 98.5312 45.9134C98.104 45.9134 97.7243 46.0226 97.392 46.2409C97.0598 46.4498 96.8035 46.7536 96.6231 47.1523C96.461 47.5022 96.387 47.9211 96.4013 48.4091C96.4046 48.5204 96.4031 48.632 96.3983 48.7432C96.3788 49.1961 96.4538 49.5961 96.6231 49.9433C96.8225 50.3325 97.0978 50.6363 97.449 50.8546C97.8097 51.0729 98.2179 51.1821 98.6736 51.1821C99.1388 51.1821 99.5327 51.0777 99.8555 50.8688C99.9746 50.794 100.084 50.7113 100.185 50.6206C100.489 50.3474 100.924 50.1968 101.291 50.3763C101.66 50.5568 101.83 51.0031 101.573 51.3236C101.474 51.4476 101.362 51.5665 101.237 51.6805C100.923 51.9653 100.544 52.1931 100.098 52.364C99.6609 52.5254 99.1815 52.6061 98.6594 52.6061Z" fill="white"/>
<path d="M107.435 52.6061C106.666 52.6061 105.983 52.4305 105.385 52.0792C104.796 51.7185 104.326 51.2343 103.975 50.6268C103.633 50.0192 103.462 49.331 103.462 48.562C103.462 47.8026 103.633 47.1191 103.975 46.5115C104.317 45.9039 104.786 45.4293 105.385 45.0875C105.983 44.7363 106.666 44.5607 107.435 44.5607C107.957 44.5607 108.446 44.6556 108.902 44.8455C109.357 45.0258 109.751 45.2774 110.084 45.6002C110.242 45.7494 110.38 45.9099 110.5 46.0815C110.735 46.4188 110.55 46.8591 110.177 47.0323C109.77 47.2215 109.296 47.0122 108.978 46.6953C108.879 46.5963 108.768 46.5065 108.645 46.4261C108.294 46.1792 107.891 46.0558 107.435 46.0558C106.998 46.0558 106.604 46.165 106.253 46.3833C105.911 46.5922 105.641 46.8912 105.441 47.2804C105.242 47.6602 105.142 48.0921 105.142 48.5763C105.142 49.0604 105.242 49.4971 105.441 49.8863C105.641 50.266 105.911 50.5651 106.253 50.7834C106.604 51.0017 106.998 51.1109 107.435 51.1109C107.9 51.1109 108.304 50.9923 108.645 50.7549C108.768 50.669 108.879 50.5733 108.979 50.4678C109.292 50.1394 109.771 49.935 110.181 50.1294C110.553 50.3061 110.736 50.7465 110.499 51.0838C110.385 51.2476 110.251 51.4038 110.098 51.5523C109.766 51.8751 109.372 52.1314 108.916 52.3213C108.46 52.5112 107.967 52.6061 107.435 52.6061Z" fill="white"/>
<path d="M113.216 52.4352C112.771 52.4352 112.411 52.075 112.411 51.6307V42.4603C112.411 42.016 112.771 41.6558 113.216 41.6558C113.66 41.6558 114.02 42.016 114.02 42.4603V46.0031C114.02 46.0999 113.909 46.1544 113.832 46.0949C113.792 46.0633 113.776 46.0085 113.797 45.9612C113.988 45.5168 114.281 45.1781 114.675 44.9451C115.093 44.6888 115.577 44.5607 116.128 44.5607C116.697 44.5607 117.2 44.6841 117.637 44.9309C118.074 45.1777 118.415 45.5195 118.662 45.9561C118.909 46.3928 119.032 46.8912 119.032 47.4513V51.6378C119.032 52.0782 118.675 52.4352 118.235 52.4352C117.795 52.4352 117.438 52.0782 117.438 51.6378V47.8927C117.438 47.5035 117.362 47.176 117.21 46.9102C117.067 46.6349 116.868 46.4261 116.612 46.2837C116.355 46.1318 116.061 46.0558 115.729 46.0558C115.406 46.0558 115.112 46.1318 114.846 46.2837C114.59 46.4261 114.386 46.6349 114.234 46.9102C114.091 47.1855 114.02 47.513 114.02 47.8927V51.6307C114.02 52.075 113.66 52.4352 113.216 52.4352Z" fill="white"/>
<path d="M124.241 52.4352C123.777 52.4352 123.4 52.0591 123.4 51.5951V42.6668C123.4 42.2028 123.777 41.8266 124.241 41.8266C124.705 41.8266 125.081 42.2028 125.081 42.6668V51.5951C125.081 52.0591 124.705 52.4352 124.241 52.4352Z" fill="white"/>
<path d="M127.928 52.4352C127.484 52.4352 127.124 52.075 127.124 51.6307V45.5005C127.124 45.0758 127.468 44.7315 127.892 44.7315H128.236C128.471 44.7315 128.661 44.9221 128.661 45.1571V46.0227C128.661 46.1006 128.566 46.1381 128.513 46.081C128.491 46.0569 128.484 46.022 128.496 45.9916C128.687 45.5322 128.984 45.1834 129.388 44.9451C129.805 44.6888 130.289 44.5607 130.84 44.5607C131.41 44.5607 131.913 44.6841 132.349 44.9309C132.786 45.1777 133.128 45.5195 133.375 45.9561C133.622 46.3928 133.745 46.896 133.745 47.4656V51.6378C133.745 52.0782 133.388 52.4352 132.948 52.4352C132.507 52.4352 132.15 52.0782 132.15 51.6378V47.8927C132.15 47.5035 132.079 47.176 131.937 46.9102C131.794 46.6349 131.59 46.4261 131.324 46.2837C131.068 46.1318 130.774 46.0558 130.441 46.0558C130.109 46.0558 129.81 46.1318 129.544 46.2837C129.288 46.4261 129.089 46.6349 128.946 46.9102C128.804 47.1855 128.733 47.513 128.733 47.8927V51.6307C128.733 52.075 128.372 52.4352 127.928 52.4352Z" fill="white"/>
<path d="M136.272 52.4352C135.827 52.4352 135.467 52.075 135.467 51.6307V45.5361C135.467 45.0917 135.827 44.7315 136.272 44.7315C136.716 44.7315 137.076 45.0917 137.076 45.5361V51.6307C137.076 52.075 136.716 52.4352 136.272 52.4352ZM136.272 43.6778C135.827 43.6778 135.467 43.3176 135.467 42.8733V42.6312C135.467 42.1868 135.827 41.8266 136.272 41.8266C136.716 41.8266 137.076 42.1868 137.076 42.6312V42.8733C137.076 43.3176 136.716 43.6778 136.272 43.6778Z" fill="white"/>
<path d="M142.29 52.5206C141.483 52.5206 140.856 52.2928 140.41 51.8371C139.964 51.3815 139.741 50.7407 139.741 49.9148V46.8604C139.741 46.4868 139.438 46.184 139.064 46.184C138.691 46.184 138.388 45.8812 138.388 45.5076V44.9451C138.388 44.8272 138.484 44.7315 138.601 44.7315C138.962 44.7315 139.242 44.6271 139.442 44.4183C139.641 44.2094 139.741 43.9246 139.741 43.5639C139.741 43.2336 140.008 42.9658 140.339 42.9658H140.545C140.99 42.9658 141.35 43.326 141.35 43.7704V43.8558C141.35 44.3395 141.742 44.7315 142.226 44.7315H142.375C142.776 44.7315 143.101 45.0567 143.101 45.4578C143.101 45.8588 142.776 46.184 142.375 46.184H142.226C141.742 46.184 141.35 46.5761 141.35 47.0597V49.8436C141.35 50.1094 141.392 50.3372 141.478 50.5271C141.563 50.7075 141.701 50.8499 141.891 50.9543C142.081 51.0492 142.328 51.0967 142.631 51.0967C142.707 51.0967 142.793 51.0919 142.888 51.0824C143.032 51.068 143.158 51.1809 143.158 51.326V51.9901C143.158 52.2455 142.97 52.4623 142.717 52.4922C142.555 52.5112 142.413 52.5206 142.29 52.5206Z" fill="white"/>
<path d="M145.533 52.4352C145.089 52.4352 144.728 52.075 144.728 51.6307V45.5361C144.728 45.0917 145.089 44.7315 145.533 44.7315C145.977 44.7315 146.338 45.0917 146.338 45.5361V51.6307C146.338 52.075 145.977 52.4352 145.533 52.4352ZM145.533 43.6778C145.089 43.6778 144.728 43.3176 144.728 42.8733V42.6312C144.728 42.1868 145.089 41.8266 145.533 41.8266C145.977 41.8266 146.338 42.1868 146.338 42.6312V42.8733C146.338 43.3176 145.977 43.6778 145.533 43.6778Z" fill="white"/>
<path d="M150.526 52.6061C150.004 52.6061 149.543 52.5159 149.144 52.3355C148.755 52.1457 148.451 51.8894 148.233 51.5666C148.015 51.2343 147.906 50.8451 147.906 50.3989C147.906 49.9812 147.996 49.6063 148.176 49.274C148.366 48.9417 148.656 48.6617 149.045 48.4339C149.434 48.206 149.923 48.0446 150.511 47.9497L152.459 47.6286C152.841 47.5656 153.189 47.8605 153.189 48.248C153.189 48.553 152.969 48.8139 152.669 48.8664L150.825 49.1886C150.398 49.2645 150.084 49.4022 149.885 49.6015C149.686 49.7914 149.586 50.0382 149.586 50.342C149.586 50.6363 149.695 50.8783 149.913 51.0682C150.141 51.2486 150.431 51.3388 150.782 51.3388C151.219 51.3388 151.598 51.2438 151.921 51.054C152.253 50.8641 152.51 50.6125 152.69 50.2993C152.87 49.9765 152.961 49.6205 152.961 49.2313V47.252C152.961 46.8722 152.818 46.5637 152.533 46.3264C152.258 46.0796 151.888 45.9561 151.423 45.9561C150.996 45.9561 150.621 46.0701 150.298 46.2979C150.212 46.3579 150.132 46.4229 150.058 46.493C149.739 46.7949 149.27 46.9871 148.877 46.7908C148.527 46.6159 148.357 46.1945 148.592 45.8817C148.697 45.741 148.82 45.6092 148.959 45.4862C149.282 45.192 149.657 44.9641 150.084 44.8027C150.521 44.6414 150.981 44.5607 151.465 44.5607C152.073 44.5607 152.609 44.6746 153.075 44.9024C153.549 45.1302 153.915 45.4483 154.171 45.8565C154.437 46.2552 154.57 46.7203 154.57 47.252V51.6663C154.57 52.0909 154.225 52.4352 153.801 52.4352H153.684C153.324 52.4352 153.032 52.1431 153.032 51.7828V51.1824C153.032 51.1068 153.098 51.0484 153.173 51.0582C153.262 51.0697 153.31 51.1675 153.261 51.2419C153.097 51.4884 152.897 51.7059 152.662 51.8941C152.386 52.1219 152.068 52.2976 151.708 52.421C151.356 52.5444 150.962 52.6061 150.526 52.6061Z" fill="white"/>
<path d="M159.644 52.5206C158.837 52.5206 158.211 52.2928 157.765 51.8371C157.318 51.3815 157.095 50.7407 157.095 49.9148V46.8604C157.095 46.4868 156.792 46.184 156.419 46.184C156.045 46.184 155.743 45.8812 155.743 45.5076V44.9451C155.743 44.8272 155.838 44.7315 155.956 44.7315C156.317 44.7315 156.597 44.6271 156.796 44.4183C156.996 44.2094 157.095 43.9246 157.095 43.5639C157.095 43.2336 157.363 42.9658 157.693 42.9658H157.9C158.344 42.9658 158.704 43.326 158.704 43.7704V43.8558C158.704 44.3395 159.096 44.7315 159.58 44.7315H159.73C160.131 44.7315 160.456 45.0567 160.456 45.4578C160.456 45.8588 160.131 46.184 159.73 46.184H159.58C159.096 46.184 158.704 46.5761 158.704 47.0597V49.8436C158.704 50.1094 158.747 50.3372 158.833 50.5271C158.918 50.7075 159.056 50.8499 159.245 50.9543C159.435 51.0492 159.682 51.0967 159.986 51.0967C160.062 51.0967 160.147 51.0919 160.242 51.0824C160.387 51.068 160.513 51.1809 160.513 51.326V51.9901C160.513 52.2455 160.325 52.4623 160.071 52.4922C159.91 52.5112 159.768 52.5206 159.644 52.5206Z" fill="white"/>
<path d="M162.888 52.4352C162.443 52.4352 162.083 52.075 162.083 51.6307V45.5361C162.083 45.0917 162.443 44.7315 162.888 44.7315C163.332 44.7315 163.692 45.0917 163.692 45.5361V51.6307C163.692 52.075 163.332 52.4352 162.888 52.4352ZM162.888 43.6778C162.443 43.6778 162.083 43.3176 162.083 42.8733V42.6312C162.083 42.1868 162.443 41.8266 162.888 41.8266C163.332 41.8266 163.692 42.1868 163.692 42.6312V42.8733C163.692 43.3176 163.332 43.6778 162.888 43.6778Z" fill="white"/>
<path d="M168.543 52.4352C168.1 52.4352 167.703 52.164 167.541 51.7518L165.224 45.837C165.015 45.3058 165.407 44.7315 165.978 44.7315C166.317 44.7315 166.62 44.9427 166.737 45.2607L168.752 50.7107C168.806 50.8564 168.698 51.0112 168.542 51.0112C168.387 51.0112 168.279 50.8564 168.333 50.7107L170.346 45.2644C170.465 44.9442 170.77 44.7315 171.111 44.7315C171.686 44.7315 172.081 45.3108 171.87 45.8459L169.544 51.7534C169.382 52.1648 168.985 52.4352 168.543 52.4352Z" fill="white"/>
<path d="M176.88 52.6061C176.111 52.6061 175.428 52.4305 174.83 52.0792C174.241 51.7185 173.781 51.2343 173.449 50.6268C173.116 50.0097 172.95 49.3215 172.95 48.562C172.95 47.7836 173.116 47.0953 173.449 46.4973C173.79 45.8992 174.246 45.4293 174.816 45.0875C175.385 44.7363 176.031 44.5607 176.752 44.5607C177.331 44.5607 177.849 44.6603 178.304 44.8597C178.76 45.059 179.144 45.3343 179.458 45.6856C179.771 46.0273 180.008 46.4213 180.17 46.8675C180.341 47.3137 180.426 47.7883 180.426 48.2915C180.426 48.4149 180.421 48.543 180.412 48.6759C180.396 48.8958 180.2 49.0462 179.98 49.0462H174.858C174.504 49.0462 174.218 48.7593 174.218 48.4054C174.218 48.0515 174.504 47.7646 174.858 47.7646H178.934C179.098 47.7646 179.168 47.9734 179.038 48.0728C178.911 48.1685 178.724 48.0545 178.727 47.8963C178.733 47.6111 178.682 47.3488 178.575 47.1096C178.423 46.7393 178.186 46.4498 177.863 46.2409C177.55 46.0226 177.179 45.9134 176.752 45.9134C176.325 45.9134 175.945 46.0226 175.613 46.2409C175.281 46.4498 175.024 46.7536 174.844 47.1523C174.682 47.5022 174.608 47.9211 174.622 48.4091C174.626 48.5204 174.624 48.632 174.619 48.7432C174.6 49.1961 174.675 49.5961 174.844 49.9433C175.043 50.3325 175.319 50.6363 175.67 50.8546C176.031 51.0729 176.439 51.1821 176.895 51.1821C177.36 51.1821 177.754 51.0777 178.076 50.8688C178.196 50.794 178.305 50.7113 178.406 50.6206C178.71 50.3474 179.145 50.1968 179.512 50.3763C179.881 50.5568 180.051 51.0031 179.794 51.3236C179.695 51.4476 179.583 51.5665 179.458 51.6805C179.144 51.9653 178.765 52.1931 178.319 52.364C177.882 52.5254 177.402 52.6061 176.88 52.6061Z" fill="white"/>
<path d="M189.281 4.78701L187.161 0H188.02L189.502 3.51221L190.985 0H191.844L189.724 4.78701H189.281ZM187.005 4.78701V0H187.837V4.78701H187.005ZM191.168 4.78701V0H192V4.78701H191.168ZM183.883 4.78701V0.416261H184.715V4.78701H183.883ZM182.426 0.728459V0H186.172V0.728459H182.426Z" fill="white"/>
<path d="M68.1552 52.5862C67.6284 52.5862 67.1638 52.4952 66.7615 52.3132C66.3687 52.1216 66.0622 51.863 65.8419 51.5373C65.6216 51.202 65.5114 50.8093 65.5114 50.3591C65.5114 49.9376 65.6024 49.5592 65.7844 49.224C65.976 48.8887 66.2682 48.6061 66.6609 48.3762C67.0536 48.1463 67.547 47.9835 68.1409 47.8877L70.1057 47.5637C70.4915 47.5001 70.8422 47.7977 70.8422 48.1887C70.8422 48.4965 70.6209 48.7597 70.3178 48.8127L68.457 49.1378C68.0259 49.2144 67.7098 49.3533 67.5087 49.5544C67.3075 49.746 67.2069 49.9951 67.2069 50.3016C67.2069 50.5986 67.3171 50.8428 67.5374 51.0344C67.7673 51.2164 68.0595 51.3074 68.4139 51.3074C68.8545 51.3074 69.2377 51.2116 69.5634 51.02C69.8986 50.8285 70.1573 50.5746 70.3393 50.2585C70.5213 49.9328 70.6123 49.5736 70.6123 49.1809V47.1836C70.6123 46.8005 70.4686 46.4891 70.1812 46.2497C69.9034 46.0006 69.5298 45.8761 69.0605 45.8761C68.6294 45.8761 68.251 45.991 67.9253 46.2209C67.8385 46.2815 67.7578 46.3471 67.6832 46.4178C67.3617 46.7224 66.888 46.9164 66.4918 46.7183C66.1387 46.5418 65.9665 46.1166 66.2037 45.801C66.3104 45.659 66.4341 45.526 66.5747 45.4019C66.9004 45.105 67.2788 44.8751 67.7098 44.7122C68.1505 44.5494 68.615 44.4679 69.1036 44.4679C69.7166 44.4679 70.2579 44.5829 70.7272 44.8128C71.2062 45.0427 71.575 45.3636 71.8336 45.7755C72.1018 46.1778 72.2359 46.6472 72.2359 47.1836V51.6379C72.2359 52.0664 71.8886 52.4138 71.46 52.4138H71.3425C70.9789 52.4138 70.6841 52.1191 70.6841 51.7555V51.1497C70.6841 51.0734 70.7512 51.0144 70.8269 51.0243C70.9163 51.036 70.9649 51.1346 70.915 51.2097C70.7495 51.4585 70.548 51.6778 70.3105 51.8678C70.0327 52.0977 69.7118 52.2749 69.3478 52.3994C68.9934 52.524 68.5959 52.5862 68.1552 52.5862Z" fill="white"/>
<path d="M81.8188 52.5862C81.0621 52.5862 80.358 52.4473 79.7066 52.1695C79.0648 51.8917 78.4997 51.5086 78.0111 51.02C77.5322 50.5219 77.1586 49.9376 76.8904 49.2671C76.6222 48.5965 76.488 47.8589 76.488 47.0543C76.488 46.2592 76.6174 45.5264 76.876 44.8559C77.1442 44.1758 77.5178 43.5915 77.9968 43.1029C78.4757 42.6048 79.0361 42.2216 79.6779 41.9534C80.3197 41.6756 81.0237 41.5367 81.7901 41.5367C82.5468 41.5367 83.2221 41.6661 83.8161 41.9247C84.4195 42.1833 84.9272 42.5234 85.3391 42.9449C85.5532 43.1589 85.7362 43.3833 85.8882 43.6181C86.1225 43.98 85.9339 44.4393 85.5461 44.6277C85.1033 44.8428 84.5799 44.6182 84.2769 44.2302C84.0962 43.9988 83.8803 43.7954 83.6293 43.6202C83.1216 43.2562 82.5085 43.0742 81.7901 43.0742C81.0812 43.0742 80.4538 43.2418 79.9078 43.5771C79.3618 43.9124 78.9355 44.3769 78.629 44.9708C78.332 45.5648 78.1835 46.2592 78.1835 47.0543C78.1835 47.8494 78.3368 48.5486 78.6433 49.1521C78.9595 49.746 79.3905 50.2106 79.9365 50.5459C80.4825 50.8716 81.11 51.0344 81.8188 51.0344C82.4127 51.0344 82.9539 50.9147 83.4425 50.6752C83.9406 50.4261 84.3381 50.0813 84.6351 49.6407C84.932 49.1904 85.0805 48.6684 85.0805 48.0745V47.8195C85.0805 47.6357 85.2984 47.539 85.4346 47.6624C85.5783 47.7926 85.4863 48.0314 85.2924 48.0314H82.5085C82.1117 48.0314 81.7901 47.7097 81.7901 47.3129C81.7901 46.9162 82.1117 46.5945 82.5085 46.5945H85.7558C86.3113 46.5945 86.7616 47.0448 86.7616 47.6003C86.7616 48.3858 86.6275 49.0899 86.3593 49.7125C86.0911 50.3256 85.7271 50.8476 85.2673 51.2787C84.8075 51.7097 84.2806 52.0354 83.6867 52.2557C83.0928 52.4761 82.4702 52.5862 81.8188 52.5862Z" fill="white"/>
<path d="M91.0896 52.4138C90.6254 52.4138 90.2491 52.0375 90.2491 51.5732V44.6404C90.2491 43.8547 89.6122 43.2179 88.8266 43.2179H88.1584C87.7418 43.2179 87.4041 42.8801 87.4041 42.4635C87.4041 42.0469 87.7418 41.7092 88.1584 41.7092H93.9777C94.3943 41.7092 94.7321 42.0469 94.7321 42.4635C94.7321 42.8801 94.3943 43.2179 93.9777 43.2179H93.3311C92.5574 43.2179 91.9302 43.8451 91.9302 44.6188V51.5732C91.9302 52.0375 91.5538 52.4138 91.0896 52.4138Z" fill="white"/>
<path d="M98.481 52.5862C97.7051 52.5862 97.0154 52.409 96.412 52.0546C95.8181 51.6906 95.3535 51.202 95.0182 50.589C94.6829 49.9663 94.5153 49.2719 94.5153 48.5055C94.5153 47.72 94.6829 47.0256 95.0182 46.4221C95.363 45.8186 95.8228 45.3444 96.3976 44.9996C96.9723 44.6452 97.6237 44.4679 98.3517 44.4679C98.9361 44.4679 99.4581 44.5685 99.9179 44.7697C100.378 44.9708 100.766 45.2486 101.082 45.6031C101.398 45.9479 101.637 46.3454 101.8 46.7957C101.973 47.2459 102.059 47.7248 102.059 48.2325C102.059 48.3571 102.054 48.4864 102.044 48.6205C102.029 48.8423 101.831 48.9941 101.609 48.9941H96.4407C96.0836 48.9941 95.7941 48.7046 95.7941 48.3475C95.7941 47.9904 96.0836 47.7009 96.4407 47.7009H100.553C100.719 47.7009 100.79 47.9116 100.658 48.0119C100.531 48.1085 100.341 47.9935 100.344 47.8337C100.35 47.546 100.299 47.2814 100.191 47.0399C100.038 46.6663 99.7982 46.3742 99.4725 46.1634C99.1564 45.9431 98.7828 45.833 98.3517 45.833C97.9207 45.833 97.5375 45.9431 97.2022 46.1634C96.867 46.3742 96.6083 46.6807 96.4263 47.083C96.2627 47.4361 96.1881 47.8588 96.2026 48.3513C96.2059 48.4636 96.2043 48.5761 96.1995 48.6884C96.1798 49.1454 96.2555 49.549 96.4263 49.8993C96.6275 50.292 96.9053 50.5986 97.2597 50.8189C97.6237 51.0392 98.0356 51.1494 98.4954 51.1494C98.9648 51.1494 99.3623 51.044 99.688 50.8333C99.8081 50.7577 99.919 50.6742 100.021 50.5827C100.327 50.307 100.766 50.1552 101.137 50.3363C101.509 50.5184 101.681 50.9688 101.421 51.2922C101.321 51.4172 101.208 51.5373 101.082 51.6523C100.766 51.9396 100.382 52.1695 99.9323 52.342C99.4916 52.5048 99.0079 52.5862 98.481 52.5862Z" fill="white"/>
<path d="M107.336 52.5862C106.56 52.5862 105.871 52.409 105.267 52.0546C104.673 51.6906 104.199 51.202 103.845 50.589C103.5 49.9759 103.327 49.2814 103.327 48.5055C103.327 47.7392 103.5 47.0495 103.845 46.4365C104.189 45.8234 104.664 45.3444 105.267 44.9996C105.871 44.6452 106.56 44.4679 107.336 44.4679C107.863 44.4679 108.356 44.5637 108.816 44.7553C109.276 44.9373 109.673 45.1912 110.009 45.5169C110.168 45.6675 110.308 45.8294 110.429 46.0025C110.666 46.3429 110.479 46.7872 110.103 46.962C109.692 47.1529 109.214 46.9417 108.893 46.6219C108.793 46.522 108.681 46.4314 108.558 46.3502C108.203 46.1012 107.796 45.9767 107.336 45.9767C106.896 45.9767 106.498 46.0868 106.144 46.3071C105.799 46.5179 105.526 46.8196 105.325 47.2124C105.123 47.5955 105.023 48.0314 105.023 48.5199C105.023 49.0084 105.123 49.4491 105.325 49.8418C105.526 50.225 105.799 50.5267 106.144 50.747C106.498 50.9674 106.896 51.0775 107.336 51.0775C107.806 51.0775 108.213 50.9578 108.558 50.7183C108.681 50.6316 108.793 50.535 108.895 50.4286C109.21 50.0972 109.693 49.8909 110.107 50.0871C110.482 50.2654 110.667 50.7098 110.428 51.0501C110.312 51.2154 110.177 51.373 110.023 51.5229C109.688 51.8486 109.29 52.1073 108.831 52.2989C108.371 52.4904 107.873 52.5862 107.336 52.5862Z" fill="white"/>
<path d="M113.169 52.4138C112.721 52.4138 112.357 52.0503 112.357 51.602V42.3486C112.357 41.9002 112.721 41.5367 113.169 41.5367C113.617 41.5367 113.981 41.9002 113.981 42.3486V45.9235C113.981 46.0211 113.869 46.0761 113.791 46.0161C113.75 45.9842 113.735 45.9289 113.756 45.8811C113.949 45.4327 114.244 45.091 114.642 44.8559C115.063 44.5973 115.552 44.4679 116.107 44.4679C116.682 44.4679 117.19 44.5925 117.631 44.8415C118.071 45.0906 118.416 45.4354 118.665 45.8761C118.914 46.3167 119.039 46.8196 119.039 47.3848V51.6092C119.039 52.0536 118.678 52.4138 118.234 52.4138C117.79 52.4138 117.429 52.0536 117.429 51.6092V47.8302C117.429 47.4375 117.353 47.107 117.199 46.8388C117.056 46.561 116.855 46.3502 116.596 46.2066C116.337 46.0533 116.04 45.9767 115.705 45.9767C115.379 45.9767 115.082 46.0533 114.814 46.2066C114.556 46.3502 114.35 46.561 114.196 46.8388C114.053 47.1166 113.981 47.447 113.981 47.8302V51.602C113.981 52.0503 113.617 52.4138 113.169 52.4138Z" fill="white"/>
<path d="M124.294 52.4138C123.826 52.4138 123.446 52.0343 123.446 51.5661V42.5569C123.446 42.0887 123.826 41.7092 124.294 41.7092C124.762 41.7092 125.142 42.0887 125.142 42.5569V51.5661C125.142 52.0343 124.762 52.4138 124.294 52.4138Z" fill="white"/>
<path d="M128.015 52.4138C127.566 52.4138 127.203 52.0503 127.203 51.602V45.4163C127.203 44.9878 127.55 44.6404 127.979 44.6404H128.325C128.562 44.6404 128.755 44.8326 128.755 45.0698V45.9433C128.755 46.0218 128.658 46.0597 128.605 46.0021C128.582 45.9778 128.576 45.9426 128.588 45.9119C128.781 45.4483 129.081 45.0963 129.488 44.8559C129.909 44.5973 130.398 44.4679 130.953 44.4679C131.528 44.4679 132.036 44.5925 132.476 44.8415C132.917 45.0906 133.262 45.4354 133.511 45.8761C133.76 46.3167 133.884 46.8244 133.884 47.3991V51.6092C133.884 52.0536 133.524 52.4138 133.08 52.4138C132.635 52.4138 132.275 52.0536 132.275 51.6092V47.8302C132.275 47.4375 132.203 47.107 132.06 46.8388C131.916 46.561 131.71 46.3502 131.442 46.2066C131.183 46.0533 130.886 45.9767 130.551 45.9767C130.216 45.9767 129.914 46.0533 129.646 46.2066C129.387 46.3502 129.186 46.561 129.042 46.8388C128.898 47.1166 128.827 47.447 128.827 47.8302V51.602C128.827 52.0503 128.463 52.4138 128.015 52.4138Z" fill="white"/>
<path d="M136.434 52.4138C135.986 52.4138 135.622 52.0503 135.622 51.602V45.4522C135.622 45.0038 135.986 44.6404 136.434 44.6404C136.882 44.6404 137.246 45.0038 137.246 45.4522V51.602C137.246 52.0503 136.882 52.4138 136.434 52.4138ZM136.434 43.5771C135.986 43.5771 135.622 43.2136 135.622 42.7653V42.521C135.622 42.0726 135.986 41.7092 136.434 41.7092C136.882 41.7092 137.246 42.0726 137.246 42.521V42.7653C137.246 43.2136 136.882 43.5771 136.434 43.5771Z" fill="white"/>
<path d="M142.506 52.5C141.692 52.5 141.06 52.2701 140.61 51.8103C140.159 51.3505 139.934 50.7039 139.934 49.8706V46.7885C139.934 46.4115 139.629 46.106 139.252 46.106C138.875 46.106 138.569 45.8004 138.569 45.4235V44.8559C138.569 44.7369 138.666 44.6404 138.785 44.6404C139.149 44.6404 139.431 44.535 139.633 44.3243C139.834 44.1135 139.934 43.8261 139.934 43.4621C139.934 43.1288 140.205 42.8587 140.538 42.8587H140.746C141.195 42.8587 141.558 43.2221 141.558 43.6705V43.7567C141.558 44.2447 141.954 44.6404 142.442 44.6404H142.593C142.997 44.6404 143.325 44.9685 143.325 45.3732C143.325 45.7779 142.997 46.106 142.593 46.106H142.442C141.954 46.106 141.558 46.5016 141.558 46.9896V49.7987C141.558 50.0669 141.601 50.2968 141.687 50.4884C141.774 50.6704 141.912 50.8141 142.104 50.9195C142.296 51.0153 142.545 51.0632 142.851 51.0632C142.928 51.0632 143.014 51.0584 143.11 51.0488C143.256 51.0342 143.383 51.1481 143.383 51.2946V51.9647C143.383 52.2224 143.193 52.4412 142.937 52.4713C142.775 52.4904 142.631 52.5 142.506 52.5Z" fill="white"/>
<path d="M145.779 52.4138C145.331 52.4138 144.967 52.0503 144.967 51.602V45.4522C144.967 45.0038 145.331 44.6404 145.779 44.6404C146.227 44.6404 146.591 45.0038 146.591 45.4522V51.602C146.591 52.0503 146.227 52.4138 145.779 52.4138ZM145.779 43.5771C145.331 43.5771 144.967 43.2136 144.967 42.7653V42.521C144.967 42.0726 145.331 41.7092 145.779 41.7092C146.227 41.7092 146.591 42.0726 146.591 42.521V42.7653C146.591 43.2136 146.227 43.5771 145.779 43.5771Z" fill="white"/>
<path d="M150.817 52.5862C150.29 52.5862 149.826 52.4952 149.423 52.3132C149.031 52.1216 148.724 51.863 148.504 51.5373C148.283 51.202 148.173 50.8093 148.173 50.3591C148.173 49.9376 148.264 49.5592 148.446 49.224C148.638 48.8887 148.93 48.6061 149.323 48.3762C149.715 48.1463 150.209 47.9835 150.803 47.8877L152.767 47.5637C153.153 47.5001 153.504 47.7977 153.504 48.1887C153.504 48.4965 153.283 48.7597 152.98 48.8127L151.119 49.1378C150.688 49.2144 150.372 49.3533 150.17 49.5544C149.969 49.746 149.869 49.9951 149.869 50.3016C149.869 50.5986 149.979 50.8428 150.199 51.0344C150.429 51.2164 150.721 51.3074 151.076 51.3074C151.516 51.3074 151.899 51.2116 152.225 51.02C152.56 50.8285 152.819 50.5746 153.001 50.2585C153.183 49.9328 153.274 49.5736 153.274 49.1809V47.1836C153.274 46.8005 153.13 46.4891 152.843 46.2497C152.565 46.0006 152.192 45.8761 151.722 45.8761C151.291 45.8761 150.913 45.991 150.587 46.2209C150.5 46.2815 150.42 46.3471 150.345 46.4177C150.023 46.7224 149.55 46.9164 149.154 46.7183C148.8 46.5418 148.628 46.1166 148.865 45.801C148.972 45.659 149.096 45.526 149.236 45.4019C149.562 45.105 149.941 44.8751 150.372 44.7122C150.812 44.5494 151.277 44.4679 151.765 44.4679C152.378 44.4679 152.92 44.5829 153.389 44.8128C153.868 45.0427 154.237 45.3636 154.495 45.7755C154.764 46.1778 154.898 46.6472 154.898 47.1836V51.6379C154.898 52.0664 154.55 52.4138 154.122 52.4138H154.004C153.641 52.4138 153.346 52.1191 153.346 51.7555V51.1497C153.346 51.0734 153.413 51.0144 153.489 51.0243C153.578 51.036 153.627 51.1346 153.577 51.2097C153.411 51.4585 153.21 51.6778 152.972 51.8678C152.695 52.0977 152.374 52.2749 152.01 52.3994C151.655 52.524 151.258 52.5862 150.817 52.5862Z" fill="white"/>
<path d="M160.018 52.5C159.204 52.5 158.572 52.2701 158.121 51.8103C157.671 51.3505 157.446 50.7039 157.446 49.8706V46.7885C157.446 46.4115 157.141 46.106 156.764 46.106C156.387 46.106 156.081 45.8004 156.081 45.4235V44.8559C156.081 44.7369 156.178 44.6404 156.297 44.6404C156.661 44.6404 156.943 44.535 157.144 44.3243C157.346 44.1135 157.446 43.8261 157.446 43.4621C157.446 43.1288 157.716 42.8587 158.05 42.8587H158.258C158.706 42.8587 159.07 43.2221 159.07 43.6705V43.7567C159.07 44.2447 159.465 44.6404 159.953 44.6404H160.104C160.509 44.6404 160.837 44.9685 160.837 45.3732C160.837 45.7779 160.509 46.106 160.104 46.106H159.953C159.465 46.106 159.07 46.5016 159.07 46.9896V49.7987C159.07 50.0669 159.113 50.2968 159.199 50.4884C159.285 50.6704 159.424 50.8141 159.616 50.9195C159.807 51.0153 160.056 51.0632 160.363 51.0632C160.44 51.0632 160.526 51.0584 160.622 51.0488C160.767 51.0342 160.895 51.1481 160.895 51.2946V51.9647C160.895 52.2224 160.705 52.4412 160.449 52.4713C160.286 52.4904 160.143 52.5 160.018 52.5Z" fill="white"/>
<path d="M163.291 52.4138C162.843 52.4138 162.479 52.0503 162.479 51.602V45.4522C162.479 45.0038 162.843 44.6404 163.291 44.6404C163.739 44.6404 164.103 45.0038 164.103 45.4522V51.602C164.103 52.0503 163.739 52.4138 163.291 52.4138ZM163.291 43.5771C162.843 43.5771 162.479 43.2136 162.479 42.7653V42.521C162.479 42.0726 162.843 41.7092 163.291 41.7092C163.739 41.7092 164.103 42.0726 164.103 42.521V42.7653C164.103 43.2136 163.739 43.5771 163.291 43.5771Z" fill="white"/>
<path d="M168.998 52.4138C168.551 52.4138 168.15 52.1402 167.987 51.7242L165.648 45.7559C165.438 45.2198 165.833 44.6404 166.409 44.6404C166.751 44.6404 167.057 44.8534 167.176 45.1743L169.208 50.6737C169.263 50.8207 169.154 50.9769 168.997 50.9769C168.84 50.9769 168.731 50.8207 168.786 50.6737L170.817 45.178C170.936 44.8549 171.244 44.6404 171.589 44.6404C172.169 44.6404 172.567 45.2249 172.355 45.7648L170.008 51.7259C169.844 52.1409 169.444 52.4138 168.998 52.4138Z" fill="white"/>
<path d="M177.41 52.5862C176.634 52.5862 175.945 52.409 175.341 52.0546C174.747 51.6906 174.283 51.202 173.948 50.589C173.612 49.9663 173.445 49.2719 173.445 48.5055C173.445 47.72 173.612 47.0256 173.948 46.4221C174.292 45.8186 174.752 45.3444 175.327 44.9996C175.902 44.6452 176.553 44.4679 177.281 44.4679C177.865 44.4679 178.387 44.5685 178.847 44.7697C179.307 44.9708 179.695 45.2486 180.011 45.6031C180.327 45.9479 180.567 46.3454 180.729 46.7957C180.902 47.2459 180.988 47.7248 180.988 48.2325C180.988 48.3571 180.983 48.4864 180.974 48.6205C180.958 48.8423 180.76 48.9941 180.538 48.9941H175.37C175.013 48.9941 174.723 48.7046 174.723 48.3475C174.723 47.9904 175.013 47.7009 175.37 47.7009H179.482C179.648 47.7009 179.719 47.9116 179.587 48.0119C179.46 48.1085 179.27 47.9935 179.274 47.8337C179.279 47.546 179.228 47.2814 179.12 47.0399C178.967 46.6663 178.727 46.3742 178.402 46.1634C178.086 45.9431 177.712 45.833 177.281 45.833C176.85 45.833 176.467 45.9431 176.132 46.1634C175.796 46.3742 175.538 46.6807 175.356 47.083C175.192 47.4361 175.117 47.8588 175.132 48.3513C175.135 48.4636 175.134 48.5761 175.129 48.6884C175.109 49.1454 175.185 49.549 175.356 49.8993C175.557 50.292 175.835 50.5986 176.189 50.8189C176.553 51.0392 176.965 51.1494 177.425 51.1494C177.894 51.1494 178.292 51.044 178.617 50.8333C178.737 50.7577 178.848 50.6742 178.95 50.5827C179.256 50.307 179.696 50.1552 180.066 50.3363C180.438 50.5184 180.61 50.9688 180.351 51.2922C180.25 51.4172 180.137 51.5373 180.011 51.6523C179.695 51.9396 179.312 52.1695 178.862 52.342C178.421 52.5048 177.937 52.5862 177.41 52.5862Z" fill="white"/>
</svg>
