<svg width="507" height="34" viewBox="0 0 507 34" fill="none" xmlns="http://www.w3.org/2000/svg">
<path d="M4.53338 0.399998H29.9734V11.584H15.4294V15.328H29.9734V19.072H15.4294V22.816H29.9734V34H0.933375V4.144H4.53338V0.399998ZM55.3973 0.399998H69.9413V34H55.3973V30.256H51.7493V26.512H48.1493V22.816H44.5013V15.328H40.8533V34H33.6053V0.399998H48.1493V7.84H51.7973V15.328H55.3973V0.399998ZM77.1896 0.399998H102.63V11.584H88.0856V15.328H102.63V19.072H88.0856V22.816H102.63V34H73.5896V4.144H77.1896V0.399998ZM138.95 0.399998V4.144H142.598V22.816H131.702V26.56H142.598V34H128.054V30.256H120.806V26.512H117.158V34H106.262V0.399998H138.95ZM128.054 19.072V15.328H131.702V7.84H128.054V11.584H124.406V7.84H120.758V15.328H124.406V19.072H128.054ZM178.934 0.399998V4.144H182.582V11.632H168.038V7.888H160.79V26.56H168.038V19.072H164.39V15.328H182.582V30.256H178.934V34H149.894V30.304H146.246V4.144H149.894V0.399998H178.934ZM208.022 0.399998H222.566V15.328H218.918V19.072H215.27V22.816H211.67V34H197.126V22.816H193.478V19.072H189.878V15.328H186.23V4.144H189.878V0.399998H200.726V11.584H208.022V0.399998ZM273.481 0.399998V4.144H277.129V22.816H273.481V26.512H255.337V34H240.793V0.399998H273.481ZM255.337 15.328H258.985V19.072H262.585V15.328H266.233V7.84H262.585V11.584H258.985V7.84H255.337V15.328ZM284.425 0.399998H313.465V34H302.617V22.816H291.721V34H280.777V4.144H284.425V0.399998ZM295.321 19.072H298.969V15.328H302.617V7.84H298.969V11.584H295.321V7.84H291.673V15.328H295.321V19.072ZM349.793 0.399998V4.144H353.441V22.816H342.545V26.56H353.441V34H338.897V30.256H331.649V26.512H328.001V34H317.105V0.399998H349.793ZM338.897 19.072V15.328H342.545V7.84H338.897V11.584H335.249V7.84H331.601V15.328H335.249V19.072H338.897ZM360.738 0.399998H393.426V15.328H382.53V34H367.986V15.328H357.09V4.144H360.738V0.399998ZM418.866 0.399998H433.41V34H418.866V30.256H415.218V26.512H411.618V22.816H407.97V15.328H404.322V34H397.074V0.399998H411.618V7.84H415.266V15.328H418.866V0.399998ZM440.658 0.399998H466.098V11.584H451.554V15.328H466.098V19.072H451.554V22.816H466.098V34H437.058V4.144H440.658V0.399998ZM502.418 0.399998V4.144H506.066V22.816H495.17V26.56H506.066V34H491.522V30.256H484.274V26.512H480.626V34H469.73V0.399998H502.418ZM491.522 19.072V15.328H495.17V7.84H491.522V11.584H487.874V7.84H484.226V15.328H487.874V19.072H491.522Z" fill="white"/>
</svg>
