<svg xmlns="http://www.w3.org/2000/svg" xmlns:xlink="http://www.w3.org/1999/xlink" width="500" zoomAndPan="magnify" viewBox="0 0 375 374.999991" height="500" preserveAspectRatio="xMidYMid meet" version="1.2"><defs><clipPath id="c01c7bb9e4"><path d="M 9.1875 120 L 358 120 L 358 260 L 9.1875 260 Z M 9.1875 120 "/></clipPath></defs><g id="ccbe063253"><g clip-rule="nonzero" clip-path="url(#c01c7bb9e4)"><path style=" stroke:none;fill-rule:nonzero;fill:#efc0ff;fill-opacity:1;" d="M -619.382812 120.421875 L -514.164062 120.421875 L -514.164062 166.679688 L -574.316406 166.679688 L -574.316406 182.164062 L -514.164062 182.164062 L -514.164062 197.648438 L -574.316406 197.648438 L -574.316406 213.136719 L -514.164062 213.136719 L -514.164062 259.394531 L -634.269531 259.394531 L -634.269531 135.90625 L -619.382812 135.90625 Z M -363.953125 120.421875 L -363.953125 135.90625 L -348.863281 135.90625 L -348.863281 244.105469 L -363.953125 244.105469 L -363.953125 259.394531 L -499.144531 259.394531 L -499.144531 135.90625 L -484.058594 135.90625 L -484.058594 120.421875 Z M -438.992188 151.390625 L -438.992188 228.621094 L -424.101562 228.621094 L -424.101562 213.136719 L -409.015625 213.136719 L -409.015625 166.878906 L -424.101562 166.878906 L -424.101562 151.390625 Z M -318.886719 120.421875 L -213.667969 120.421875 L -213.667969 166.679688 L -273.820312 166.679688 L -273.820312 182.164062 L -213.667969 182.164062 L -213.667969 197.648438 L -273.820312 197.648438 L -273.820312 213.136719 L -213.667969 213.136719 L -213.667969 259.394531 L -333.773438 259.394531 L -333.773438 135.90625 L -318.886719 135.90625 Z M -108.519531 120.421875 L -48.367188 120.421875 L -48.367188 259.394531 L -108.519531 259.394531 L -108.519531 243.910156 L -123.605469 243.910156 L -123.605469 228.421875 L -138.496094 228.421875 L -138.496094 213.136719 L -153.585938 213.136719 L -153.585938 182.164062 L -168.671875 182.164062 L -168.671875 259.394531 L -198.648438 259.394531 L -198.648438 120.421875 L -138.496094 120.421875 L -138.496094 151.195312 L -123.410156 151.195312 L -123.410156 182.164062 L -108.519531 182.164062 Z M 162.207031 120.421875 L 162.207031 212.9375 L 177.296875 212.9375 L 177.296875 243.910156 L 162.207031 243.910156 L 162.207031 259.394531 L 117.144531 259.394531 L 117.144531 243.910156 L 27.015625 243.910156 L 27.015625 182.164062 L 41.90625 182.164062 L 41.90625 166.679688 L 56.992188 166.679688 L 56.992188 151.195312 L 72.078125 151.195312 L 72.078125 135.707031 L 87.167969 135.707031 L 87.167969 120.421875 Z M 87.167969 197.453125 L 87.167969 212.9375 L 117.144531 212.9375 L 117.144531 182.164062 L 102.058594 182.164062 L 102.058594 197.453125 Z M 192.386719 259.394531 L 192.386719 228.421875 L 222.359375 228.421875 L 222.359375 259.394531 Z M 252.449219 259.394531 L 252.449219 243.910156 L 237.363281 243.910156 L 237.363281 135.707031 L 252.449219 135.707031 L 252.449219 120.421875 L 342.578125 120.421875 L 342.578125 135.90625 L 357.667969 135.90625 L 357.667969 259.394531 Z M 312.601562 228.421875 L 312.601562 151.195312 L 282.625 151.195312 L 282.625 228.421875 Z M 312.601562 228.421875 "/></g></g></svg>