<svg width="282" height="173" viewBox="0 0 282 173" fill="none" xmlns="http://www.w3.org/2000/svg">
<path d="M147.547 6.53191V10.9298L151.832 10.8734V41.6021H147.547V46H109.15V10.9298H113.435V6.53191H147.547ZM139.033 28.4649V19.6691H134.748V24.067H130.519V19.6691H126.234V28.4649H130.519V32.8628H134.748V28.4649H139.033ZM160.402 6.53191H194.514V46H181.772V32.8628H168.973V46H156.117V10.9298H160.402V6.53191ZM173.201 28.4649H177.486V24.067H181.772V15.2713H177.486V19.6691H173.201V15.2713H168.916V24.067H173.201V28.4649ZM203.075 6.53191H241.472V24.067H228.673V46H211.589V24.067H198.79V10.9298H203.075V6.53191ZM249.986 6.53191H279.869V19.6691H262.785V24.067H279.869V28.4649H262.785V32.8628H279.869V46H245.757V10.9298H249.986V6.53191Z" fill="white"/>
<path d="M102.14 92.3803V88.8564H105.664V92.3803H102.14ZM116.235 110H112.711H109.188H105.664H102.14V106.476V102.952H105.664V106.476H109.188H112.711H116.235V102.952H119.759V106.476V110H116.235ZM105.664 102.952V99.4282H109.188V102.952H105.664ZM112.711 95.9043H116.235V99.4282H112.711H109.188V95.9043H112.711ZM116.235 95.9043V92.3803V88.8564H119.759V92.3803V95.9043H116.235ZM116.235 88.8564H112.711H109.188H105.664V85.3324H109.188H112.711H116.235V88.8564ZM130.331 110V106.476V102.952V99.4282H133.855V102.952V106.476V110H130.331ZM123.283 92.3803V88.8564V85.3324H126.807H130.331H133.855H137.379H140.903V88.8564V92.3803V95.9043H137.379V99.4282H133.855V95.9043H137.379V92.3803V88.8564H133.855H130.331H126.807V92.3803H123.283ZM151.475 110V106.476H154.999V110H151.475ZM151.475 106.476H147.951V102.952V99.4282V95.9043H144.427V92.3803H147.951V88.8564V85.3324H151.475V88.8564V92.3803H154.999V95.9043H151.475V99.4282V102.952V106.476ZM172.618 110V106.476V102.952V99.4282V95.9043H176.142V99.4282V102.952V106.476V110H172.618ZM158.523 110V106.476V102.952V99.4282V95.9043V92.3803V88.8564V85.3324H162.047V88.8564V92.3803V95.9043H165.57V99.4282H162.047V102.952V106.476V110H158.523ZM172.618 95.9043H169.094H165.57V92.3803H169.094H172.618V95.9043ZM179.666 113.524V110V106.476V102.952H183.19V106.476V110V113.524H179.666ZM204.334 92.3803V88.8564H207.858V92.3803H204.334ZM218.43 110H214.906H211.382H207.858H204.334V106.476V102.952H207.858V106.476H211.382H214.906H218.43V102.952H221.953V106.476V110H218.43ZM207.858 102.952V99.4282H211.382V102.952H207.858ZM214.906 95.9043H218.43V99.4282H214.906H211.382V95.9043H214.906ZM218.43 95.9043V92.3803V88.8564H221.953V92.3803V95.9043H218.43ZM218.43 88.8564H214.906H211.382H207.858V85.3324H211.382H214.906H218.43V88.8564ZM236.049 106.476H239.573V110H236.049H232.525H229.001V106.476H232.525H236.049ZM239.573 106.476V102.952V99.4282H243.097V102.952V106.476H239.573ZM229.001 106.476H225.477V102.952V99.4282H229.001V102.952V106.476ZM239.573 99.4282H236.049H232.525H229.001V95.9043H232.525H236.049H239.573V99.4282ZM239.573 95.9043V92.3803V88.8564H243.097V92.3803V95.9043H239.573ZM229.001 95.9043H225.477V92.3803V88.8564H229.001V92.3803V95.9043ZM239.573 88.8564H236.049H232.525H229.001V85.3324H232.525H236.049H239.573V88.8564ZM253.669 110V106.476H257.193V110H253.669ZM253.669 106.476H250.145V102.952V99.4282V95.9043H246.621V92.3803H250.145V88.8564V85.3324H253.669V88.8564V92.3803H257.193V95.9043H253.669V99.4282V102.952V106.476ZM274.812 110V106.476V102.952V99.4282V95.9043H278.336V99.4282V102.952V106.476V110H274.812ZM260.717 110V106.476V102.952V99.4282V95.9043V92.3803V88.8564V85.3324H264.241V88.8564V92.3803V95.9043H267.765V99.4282H264.241V102.952V106.476V110H260.717ZM274.812 95.9043H271.289H267.765V92.3803H271.289H274.812V95.9043Z" fill="white"/>
<path d="M105.688 156.476H109.211V160H105.688H102.164H98.6396V156.476H102.164H105.688ZM109.211 156.476V152.952V149.428V145.904V142.38V138.856V135.332H112.735V138.856V142.38V145.904V149.428V152.952V156.476H109.211ZM98.6396 156.476H95.1157V152.952H98.6396V156.476ZM130.355 160H126.831H123.307H119.783V156.476H123.307H126.831H130.355V152.952V149.428V145.904V142.38H133.879V145.904V149.428V152.952V156.476V160H130.355ZM119.783 156.476H116.259V152.952V149.428V145.904V142.38H119.783V145.904V149.428V152.952V156.476ZM151.499 160V156.476V152.952V149.428V145.904H155.023V149.428V152.952V156.476V160H151.499ZM137.403 160V156.476V152.952V149.428V145.904V142.38H140.927V145.904H144.451V149.428H140.927V152.952V156.476V160H137.403ZM151.499 145.904H147.975H144.451V142.38H147.975H151.499V145.904ZM172.642 156.476H176.166V160H172.642H169.118H165.594H162.07V156.476H165.594H169.118H172.642ZM162.07 156.476H158.547V152.952V149.428V145.904H162.07V149.428H165.594H169.118H172.642V145.904H176.166V149.428V152.952H172.642H169.118H165.594H162.07V156.476ZM172.642 145.904H169.118H165.594H162.07V142.38H165.594H169.118H172.642V145.904ZM197.31 142.38V138.856H200.834V142.38H197.31ZM211.406 160H207.882H204.358H200.834H197.31V156.476V152.952H200.834V156.476H204.358H207.882H211.406V152.952H214.93V156.476V160H211.406ZM200.834 152.952V149.428H204.358V152.952H200.834ZM207.882 145.904H211.406V149.428H207.882H204.358V145.904H207.882ZM211.406 145.904V142.38V138.856H214.93V142.38V145.904H211.406ZM211.406 138.856H207.882H204.358H200.834V135.332H204.358H207.882H211.406V138.856ZM229.025 156.476H232.549V160H229.025H225.501H221.977V156.476H225.501H229.025ZM232.549 156.476V152.952V149.428V145.904H229.025V149.428H225.501V152.952H221.977V156.476H218.453V152.952V149.428V145.904V142.38V138.856H221.977V142.38V145.904V149.428H225.501V145.904H229.025V142.38H232.549V138.856H236.073V142.38V145.904V149.428V152.952V156.476H232.549ZM232.549 138.856H229.025H225.501H221.977V135.332H225.501H229.025H232.549V138.856ZM239.597 142.38V138.856H243.121V142.38H239.597ZM253.693 160H250.169H246.645H243.121H239.597V156.476V152.952H243.121V156.476H246.645H250.169H253.693V152.952H257.217V156.476V160H253.693ZM243.121 152.952V149.428H246.645V152.952H243.121ZM250.169 145.904H253.693V149.428H250.169H246.645V145.904H250.169ZM253.693 145.904V142.38V138.856H257.217V142.38V145.904H253.693ZM253.693 138.856H250.169H246.645H243.121V135.332H246.645H250.169H253.693V138.856ZM271.313 156.476H274.836V160H271.313H267.789H264.265V156.476H267.789H271.313ZM274.836 156.476V152.952V149.428V145.904H278.36V149.428V152.952V156.476H274.836ZM264.265 156.476H260.741V152.952H264.265V156.476ZM274.836 145.904H271.313H267.789H264.265H260.741V142.38V138.856V135.332H264.265H267.789H271.313H274.836H278.36V138.856H274.836H271.313H267.789H264.265V142.38H267.789H271.313H274.836V145.904Z" fill="white"/>
</svg>
