<svg width="282" height="173" viewBox="0 0 282 173" fill="none" xmlns="http://www.w3.org/2000/svg">
<path d="M147.547 6.53191V10.9298L151.832 10.8734V41.6021H147.547V46H109.15V10.9298H113.435V6.53191H147.547ZM139.033 28.4649V19.6691H134.748V24.067H130.519V19.6691H126.234V28.4649H130.519V32.8628H134.748V28.4649H139.033ZM160.402 6.53191H194.514V46H181.772V32.8628H168.973V46H156.117V10.9298H160.402V6.53191ZM173.201 28.4649H177.486V24.067H181.772V15.2713H177.486V19.6691H173.201V15.2713H168.916V24.067H173.201V28.4649ZM203.075 6.53191H241.472V24.067H228.673V46H211.589V24.067H198.79V10.9298H203.075V6.53191ZM249.986 6.53191H279.869V19.6691H262.785V24.067H279.869V28.4649H262.785V32.8628H279.869V46H245.757V10.9298H249.986V6.53191Z" fill="white"/>
<path d="M0.0425568 92.3803V88.8564H3.56649V92.3803H0.0425568ZM14.1383 110H10.6144H7.09043H3.56649H0.0425568V106.476V102.952H3.56649V106.476H7.09043H10.6144H14.1383V102.952H17.6622V106.476V110H14.1383ZM3.56649 102.952V99.4282H7.09043V102.952H3.56649ZM10.6144 95.9043H14.1383V99.4282H10.6144H7.09043V95.9043H10.6144ZM14.1383 95.9043V92.3803V88.8564H17.6622V92.3803V95.9043H14.1383ZM14.1383 88.8564H10.6144H7.09043H3.56649V85.3324H7.09043H10.6144H14.1383V88.8564ZM31.758 106.476H35.2819V110H31.758H28.234H24.7101V106.476H28.234H31.758ZM35.2819 106.476V102.952V99.4282H38.8059V102.952V106.476H35.2819ZM24.7101 106.476H21.1862V102.952V99.4282V95.9043V92.3803H24.7101V95.9043H28.234H31.758H35.2819V99.4282H31.758H28.234H24.7101V102.952V106.476ZM24.7101 92.3803V88.8564H28.234V92.3803H24.7101ZM31.758 85.3324H35.2819V88.8564H31.758H28.234V85.3324H31.758ZM49.3777 110V106.476H52.9016V110H49.3777ZM49.3777 106.476H45.8537V102.952V99.4282V95.9043H42.3298V92.3803H45.8537V88.8564V85.3324H49.3777V88.8564V92.3803H52.9016V95.9043H49.3777V99.4282V102.952V106.476ZM70.5213 110V106.476V102.952V99.4282V95.9043H74.0452V99.4282V102.952V106.476V110H70.5213ZM56.4255 110V106.476V102.952V99.4282V95.9043V92.3803V88.8564V85.3324H59.9495V88.8564V92.3803V95.9043H63.4734V99.4282H59.9495V102.952V106.476V110H56.4255ZM70.5213 95.9043H66.9973H63.4734V92.3803H66.9973H70.5213V95.9043ZM77.5691 113.524V110V106.476V102.952H81.0931V106.476V110V113.524H77.5691ZM102.237 92.3803V88.8564H105.761V92.3803H102.237ZM116.332 110H112.809H109.285H105.761H102.237V106.476V102.952H105.761V106.476H109.285H112.809H116.332V102.952H119.856V106.476V110H116.332ZM105.761 102.952V99.4282H109.285V102.952H105.761ZM112.809 95.9043H116.332V99.4282H112.809H109.285V95.9043H112.809ZM116.332 95.9043V92.3803V88.8564H119.856V92.3803V95.9043H116.332ZM116.332 88.8564H112.809H109.285H105.761V85.3324H109.285H112.809H116.332V88.8564ZM130.428 110V106.476V102.952V99.4282H133.952V102.952V106.476V110H130.428ZM123.38 92.3803V88.8564V85.3324H126.904H130.428H133.952H137.476H141V88.8564V92.3803V95.9043H137.476V99.4282H133.952V95.9043H137.476V92.3803V88.8564H133.952H130.428H126.904V92.3803H123.38ZM151.572 110V106.476H155.096V110H151.572ZM151.572 106.476H148.048V102.952V99.4282V95.9043H144.524V92.3803H148.048V88.8564V85.3324H151.572V88.8564V92.3803H155.096V95.9043H151.572V99.4282V102.952V106.476ZM172.715 110V106.476V102.952V99.4282V95.9043H176.239V99.4282V102.952V106.476V110H172.715ZM158.62 110V106.476V102.952V99.4282V95.9043V92.3803V88.8564V85.3324H162.144V88.8564V92.3803V95.9043H165.668V99.4282H162.144V102.952V106.476V110H158.62ZM172.715 95.9043H169.191H165.668V92.3803H169.191H172.715V95.9043ZM179.763 113.524V110V106.476V102.952H183.287V106.476V110V113.524H179.763ZM204.431 92.3803V88.8564H207.955V92.3803H204.431ZM218.527 110H215.003H211.479H207.955H204.431V106.476V102.952H207.955V106.476H211.479H215.003H218.527V102.952H222.051V106.476V110H218.527ZM207.955 102.952V99.4282H211.479V102.952H207.955ZM215.003 95.9043H218.527V99.4282H215.003H211.479V95.9043H215.003ZM218.527 95.9043V92.3803V88.8564H222.051V92.3803V95.9043H218.527ZM218.527 88.8564H215.003H211.479H207.955V85.3324H211.479H215.003H218.527V88.8564ZM236.146 106.476H239.67V110H236.146H232.622H229.098V106.476H232.622H236.146ZM239.67 106.476V102.952V99.4282H243.194V102.952V106.476H239.67ZM229.098 106.476H225.574V102.952V99.4282H229.098V102.952V106.476ZM239.67 99.4282H236.146H232.622H229.098V95.9043H232.622H236.146H239.67V99.4282ZM239.67 95.9043V92.3803V88.8564H243.194V92.3803V95.9043H239.67ZM229.098 95.9043H225.574V92.3803V88.8564H229.098V92.3803V95.9043ZM239.67 88.8564H236.146H232.622H229.098V85.3324H232.622H236.146H239.67V88.8564ZM253.766 110V106.476H257.29V110H253.766ZM253.766 106.476H250.242V102.952V99.4282V95.9043H246.718V92.3803H250.242V88.8564V85.3324H253.766V88.8564V92.3803H257.29V95.9043H253.766V99.4282V102.952V106.476ZM274.91 110V106.476V102.952V99.4282V95.9043H278.434V99.4282V102.952V106.476V110H274.91ZM260.814 110V106.476V102.952V99.4282V95.9043V92.3803V88.8564V85.3324H264.338V88.8564V92.3803V95.9043H267.862V99.4282H264.338V102.952V106.476V110H260.814ZM274.91 95.9043H271.386H267.862V92.3803H271.386H274.91V95.9043Z" fill="white"/>
<path d="M105.688 156.476H109.211V160H105.688H102.164H98.6396V156.476H102.164H105.688ZM109.211 156.476V152.952V149.428V145.904V142.38V138.856V135.332H112.735V138.856V142.38V145.904V149.428V152.952V156.476H109.211ZM98.6396 156.476H95.1157V152.952H98.6396V156.476ZM130.355 160H126.831H123.307H119.783V156.476H123.307H126.831H130.355V152.952V149.428V145.904V142.38H133.879V145.904V149.428V152.952V156.476V160H130.355ZM119.783 156.476H116.259V152.952V149.428V145.904V142.38H119.783V145.904V149.428V152.952V156.476ZM151.499 160V156.476V152.952V149.428V145.904H155.023V149.428V152.952V156.476V160H151.499ZM137.403 160V156.476V152.952V149.428V145.904V142.38H140.927V145.904H144.451V149.428H140.927V152.952V156.476V160H137.403ZM151.499 145.904H147.975H144.451V142.38H147.975H151.499V145.904ZM172.642 156.476H176.166V160H172.642H169.118H165.594H162.07V156.476H165.594H169.118H172.642ZM162.07 156.476H158.547V152.952V149.428V145.904H162.07V149.428H165.594H169.118H172.642V145.904H176.166V149.428V152.952H172.642H169.118H165.594H162.07V156.476ZM172.642 145.904H169.118H165.594H162.07V142.38H165.594H169.118H172.642V145.904ZM197.31 142.38V138.856H200.834V142.38H197.31ZM211.406 160H207.882H204.358H200.834H197.31V156.476V152.952H200.834V156.476H204.358H207.882H211.406V152.952H214.93V156.476V160H211.406ZM200.834 152.952V149.428H204.358V152.952H200.834ZM207.882 145.904H211.406V149.428H207.882H204.358V145.904H207.882ZM211.406 145.904V142.38V138.856H214.93V142.38V145.904H211.406ZM211.406 138.856H207.882H204.358H200.834V135.332H204.358H207.882H211.406V138.856ZM229.025 156.476H232.549V160H229.025H225.501H221.977V156.476H225.501H229.025ZM232.549 156.476V152.952V149.428V145.904H229.025V149.428H225.501V152.952H221.977V156.476H218.453V152.952V149.428V145.904V142.38V138.856H221.977V142.38V145.904V149.428H225.501V145.904H229.025V142.38H232.549V138.856H236.073V142.38V145.904V149.428V152.952V156.476H232.549ZM232.549 138.856H229.025H225.501H221.977V135.332H225.501H229.025H232.549V138.856ZM239.597 142.38V138.856H243.121V142.38H239.597ZM253.693 160H250.169H246.645H243.121H239.597V156.476V152.952H243.121V156.476H246.645H250.169H253.693V152.952H257.217V156.476V160H253.693ZM243.121 152.952V149.428H246.645V152.952H243.121ZM250.169 145.904H253.693V149.428H250.169H246.645V145.904H250.169ZM253.693 145.904V142.38V138.856H257.217V142.38V145.904H253.693ZM253.693 138.856H250.169H246.645H243.121V135.332H246.645H250.169H253.693V138.856ZM271.313 156.476H274.836V160H271.313H267.789H264.265V156.476H267.789H271.313ZM274.836 156.476V152.952V149.428V145.904H278.36V149.428V152.952V156.476H274.836ZM264.265 156.476H260.741V152.952H264.265V156.476ZM274.836 145.904H271.313H267.789H264.265H260.741V142.38V138.856V135.332H264.265H267.789H271.313H274.836H278.36V138.856H274.836H271.313H267.789H264.265V142.38H267.789H271.313H274.836V145.904Z" fill="white"/>
</svg>
