<svg  viewBox="0 0 798 183" fill="none" xmlns="http://www.w3.org/2000/svg">
<path d="M17.89 19.9041H101.248V56.5503H53.5925V68.8181H101.248V81.086H53.5925V93.3538H101.248V130H6.09398V32.1719H17.89V19.9041ZM220.256 19.9041V32.1719H232.21V117.889H220.256V130H113.149V32.1719H125.102V19.9041H220.256ZM160.805 44.4397V105.622H172.601V93.3538H184.554V56.7076H172.601V44.4397H160.805ZM255.96 19.9041H339.318V56.5503H291.663V68.8181H339.318V81.086H291.663V93.3538H339.318V130H244.164V32.1719H255.96V19.9041ZM422.624 19.9041H470.28V130H422.624V117.732H410.671V105.464H398.875V93.3538H386.921V68.8181H374.968V130H351.219V19.9041H398.875V44.2825H410.828V68.8181H422.624V19.9041ZM637.109 19.9041V93.1965H649.063V117.732H637.109V130H601.407V117.732H530.002V68.8181H541.798V56.5503H553.751V44.2825H565.704V32.0146H577.658V19.9041H637.109ZM577.658 80.9287V93.1965H601.407V68.8181H589.454V80.9287H577.658ZM661.017 130V105.464H684.766V130H661.017ZM708.604 130V117.732H696.651V32.0146H708.604V19.9041H780.009V32.1719H791.963V130H708.604ZM756.26 105.464V44.2825H732.511V105.464H756.26Z" fill="#EFC0FF"/>
<path d="M40.3081 170.963V167.775V164.587V161.399V158.21V155.022V151.834V148.646H43.4962V151.834V155.022V158.21V161.399V164.587V167.775V170.963H40.3081ZM63.5175 170.963V167.775V164.587V161.399V158.21H66.7056V161.399V164.587V167.775V170.963H63.5175ZM50.7651 170.963V167.775V164.587V161.399V158.21V155.022H53.9532V158.21H57.1413V161.399H53.9532V164.587V167.775V170.963H50.7651ZM63.5175 158.21H60.3294H57.1413V155.022H60.3294H63.5175V158.21ZM86.7269 170.963V167.775V164.587V161.399V158.21H89.915V161.399V164.587V167.775V170.963H86.7269ZM73.9745 170.963V167.775V164.587V161.399V158.21V155.022H77.1626V158.21H80.3507V161.399H77.1626V164.587V167.775V170.963H73.9745ZM86.7269 158.21H83.5388H80.3507V155.022H83.5388H86.7269V158.21ZM106.748 167.775H109.936V170.963H106.748H103.56H100.372V167.775H103.56H106.748ZM109.936 167.775V164.587V161.399V158.21H113.124V161.399V164.587V167.775H109.936ZM100.372 167.775H97.1839V164.587V161.399V158.21H100.372V161.399V164.587V167.775ZM109.936 158.21H106.748H103.56H100.372V155.022H103.56H106.748H109.936V158.21ZM126.769 170.963V167.775H129.958V170.963H126.769ZM129.958 167.775V164.587H133.146V167.775H129.958ZM126.769 167.775H123.581V164.587H126.769V167.775ZM133.146 164.587V161.399V158.21V155.022H136.334V158.21V161.399V164.587H133.146ZM123.581 164.587H120.393V161.399V158.21V155.022H123.581V158.21V161.399V164.587ZM156.355 170.963H153.167H149.979H146.791V167.775H143.603V164.587H146.791V161.399H149.979H153.167H156.355V158.21H159.543V161.399V164.587V167.775V170.963H156.355ZM153.167 167.775H156.355V164.587H153.167H149.979H146.791V167.775H149.979H153.167ZM156.355 158.21H153.167H149.979H146.791V155.022H149.979H153.167H156.355V158.21ZM173.188 170.963V167.775H176.376V170.963H173.188ZM173.188 167.775H170V164.587V161.399V158.21H166.812V155.022H170V151.834V148.646H173.188V151.834V155.022H176.376V158.21H173.188V161.399V164.587V167.775ZM196.398 167.775H199.586V170.963H196.398H193.21H190.022H186.833V167.775H190.022H193.21H196.398ZM186.833 167.775H183.645V164.587V161.399V158.21H186.833V161.399H190.022H193.21H196.398V158.21H199.586V161.399V164.587H196.398H193.21H190.022H186.833V167.775ZM196.398 158.21H193.21H190.022H186.833V155.022H190.022H193.21H196.398V158.21ZM233.252 158.21H236.44V161.399H233.252H230.064V158.21H233.252ZM236.44 158.21V155.022V151.834H239.628V155.022V158.21H236.44ZM230.064 158.21H226.876V155.022V151.834H230.064V155.022V158.21ZM236.44 151.834H233.252H230.064V148.646H233.252H236.44V151.834ZM279.671 155.022V151.834H282.859V155.022H279.671ZM276.483 167.775H279.671V170.963H276.483H273.295H270.107V167.775H273.295H276.483ZM279.671 167.775V164.587H282.859V167.775H279.671ZM270.107 167.775H266.919V164.587V161.399V158.21V155.022V151.834H270.107V155.022V158.21V161.399V164.587V167.775ZM279.671 151.834H276.483H273.295H270.107V148.646H273.295H276.483H279.671V151.834ZM299.692 167.775H302.88V170.963H299.692H296.504H293.316V167.775H296.504H299.692ZM302.88 167.775V164.587V161.399V158.21H306.069V161.399V164.587V167.775H302.88ZM293.316 167.775H290.128V164.587V161.399V158.21H293.316V161.399V164.587V167.775ZM302.88 158.21H299.692H296.504H293.316V155.022H296.504H299.692H302.88V158.21ZM316.526 170.963V167.775H319.714V170.963H316.526ZM316.526 167.775H313.337V164.587V161.399V158.21V155.022V151.834V148.646H316.526V151.834V155.022V158.21V161.399V164.587V167.775ZM330.171 170.963V167.775H333.359V170.963H330.171ZM330.171 167.775H326.983V164.587V161.399V158.21V155.022V151.834V148.646H330.171V151.834V155.022V158.21V161.399V164.587V167.775ZM353.38 170.963H350.192H347.004H343.816V167.775H340.628V164.587H343.816V161.399H347.004H350.192H353.38V158.21H356.568V161.399V164.587V167.775V170.963H353.38ZM350.192 167.775H353.38V164.587H350.192H347.004H343.816V167.775H347.004H350.192ZM353.38 158.21H350.192H347.004H343.816V155.022H347.004H350.192H353.38V158.21ZM373.401 167.775H376.589V170.963H373.401H370.213H367.025H363.837V167.775V164.587V161.399V158.21V155.022V151.834V148.646H367.025V151.834V155.022V158.21H370.213V161.399H367.025V164.587V167.775H370.213H373.401ZM376.589 167.775V164.587V161.399V158.21H379.778V161.399V164.587V167.775H376.589ZM376.589 158.21H373.401H370.213V155.022H373.401H376.589V158.21ZM396.611 167.775H399.799V170.963H396.611H393.423H390.235V167.775H393.423H396.611ZM399.799 167.775V164.587V161.399V158.21H402.987V161.399V164.587V167.775H399.799ZM390.235 167.775H387.046V164.587V161.399V158.21H390.235V161.399V164.587V167.775ZM399.799 158.21H396.611H393.423H390.235V155.022H393.423H396.611H399.799V158.21ZM410.256 170.963V167.775V164.587V161.399V158.21V155.022H413.444V158.21H416.632V161.399H413.444V164.587V167.775V170.963H410.256ZM423.008 161.399V158.21H426.196V161.399H423.008ZM423.008 158.21H419.82H416.632V155.022H419.82H423.008V158.21ZM446.218 170.963H443.03H439.841H436.653V167.775H433.465V164.587H436.653V161.399H439.841H443.03H446.218V158.21H449.406V161.399V164.587V167.775V170.963H446.218ZM443.03 167.775H446.218V164.587H443.03H439.841H436.653V167.775H439.841H443.03ZM446.218 158.21H443.03H439.841H436.653V155.022H439.841H443.03H446.218V158.21ZM463.051 170.963V167.775H466.239V170.963H463.051ZM463.051 167.775H459.863V164.587V161.399V158.21H456.675V155.022H459.863V151.834V148.646H463.051V151.834V155.022H466.239V158.21H463.051V161.399V164.587V167.775ZM486.26 167.775H489.448V170.963H486.26H483.072H479.884H476.696V167.775H479.884H483.072H486.26ZM476.696 167.775H473.508V164.587V161.399V158.21H476.696V161.399H479.884H483.072H486.26V158.21H489.448V161.399V164.587H486.26H483.072H479.884H476.696V167.775ZM486.26 158.21H483.072H479.884H476.696V155.022H479.884H483.072H486.26V158.21ZM523.115 158.21H526.303V161.399H523.115H519.927V158.21H523.115ZM526.303 158.21V155.022V151.834H529.491V155.022V158.21H526.303ZM519.927 158.21H516.739V155.022V151.834H519.927V155.022V158.21ZM526.303 151.834H523.115H519.927V148.646H523.115H526.303V151.834ZM563.157 170.963V167.775V164.587V161.399V158.21V155.022V151.834H559.969H556.781V148.646H559.969H563.157H566.345H569.534H572.722V151.834H569.534H566.345V155.022V158.21V161.399V164.587V167.775V170.963H563.157ZM579.991 170.963V167.775V164.587V161.399V158.21V155.022H583.179V158.21H586.367V161.399H583.179V164.587V167.775V170.963H579.991ZM592.743 161.399V158.21H595.931V161.399H592.743ZM592.743 158.21H589.555H586.367V155.022H589.555H592.743V158.21ZM615.952 170.963H612.764H609.576H606.388V167.775H603.2V164.587H606.388V161.399H609.576H612.764H615.952V158.21H619.14V161.399V164.587V167.775V170.963H615.952ZM612.764 167.775H615.952V164.587H612.764H609.576H606.388V167.775H609.576H612.764ZM615.952 158.21H612.764H609.576H606.388V155.022H609.576H612.764H615.952V158.21ZM639.162 170.963V167.775V164.587V161.399V158.21H642.35V161.399V164.587V167.775V170.963H639.162ZM626.409 170.963V167.775V164.587V161.399V158.21V155.022H629.598V158.21H632.786V161.399H629.598V164.587V167.775V170.963H626.409ZM639.162 158.21H635.974H632.786V155.022H635.974H639.162V158.21ZM659.183 167.775H662.371V170.963H659.183H655.995H652.807H649.619V167.775H652.807H655.995H659.183ZM662.371 167.775V164.587H665.559V167.775H662.371ZM662.371 164.587H659.183H655.995H652.807V161.399H655.995H659.183H662.371V164.587ZM652.807 161.399H649.619V158.21H652.807V161.399ZM662.371 155.022H665.559V158.21H662.371H659.183H655.995H652.807V155.022H655.995H659.183H662.371ZM676.016 170.963V167.775V164.587V161.399V158.21H672.828V155.022H676.016V151.834H679.204V155.022H682.393H685.581V158.21H682.393H679.204V161.399V164.587V167.775V170.963H676.016ZM682.393 148.646H685.581V151.834H682.393H679.204V148.646H682.393ZM702.414 167.775H705.602V170.963H702.414H699.226H696.038V167.775H699.226H702.414ZM705.602 167.775V164.587V161.399V158.21H708.79V161.399V164.587V167.775H705.602ZM696.038 167.775H692.849V164.587V161.399V158.21H696.038V161.399V164.587V167.775ZM705.602 158.21H702.414H699.226H696.038V155.022H699.226H702.414H705.602V158.21ZM716.059 170.963V167.775V164.587V161.399V158.21V155.022H719.247V158.21H722.435V161.399H719.247V164.587V167.775V170.963H716.059ZM728.811 161.399V158.21H731.999V161.399H728.811ZM728.811 158.21H725.623H722.435V155.022H725.623H728.811V158.21ZM752.021 170.963V167.775V164.587V161.399V158.21H755.209V161.399V164.587V167.775V170.963H752.021ZM739.268 170.963V167.775V164.587V161.399V158.21V155.022H742.456H745.645V158.21H748.833V161.399V164.587H745.645V161.399V158.21H742.456V161.399V164.587V167.775V170.963H739.268ZM752.021 158.21H748.833V155.022H752.021V158.21Z" fill="#EFC0FF"/>
</svg>
