<svg width="335" height="173" viewBox="0 0 335 173" fill="none" xmlns="http://www.w3.org/2000/svg">
<path d="M27.9114 6.53191H44.9954V32.8628H40.7103V37.2043H36.4252V41.6021H32.1965V46H15.1124V41.6021H10.8273V37.2043H6.5986V32.8628H2.3135V10.9298H6.5986V6.53191H19.3412V32.8628H27.9114V6.53191ZM53.5097 6.53191H83.3927V19.6691H66.3086V24.067H83.3927V28.4649H66.3086V32.8628H83.3927V46H49.281V10.9298H53.5097V6.53191ZM113.257 6.53191H130.341V46H113.257V41.6021H108.972V37.2043H104.743V32.8628H100.458V24.067H96.1726V46H87.6588V6.53191H104.743V15.2713H109.028V24.067H113.257V6.53191ZM160.224 6.53191H177.308V46H134.626V10.9298H138.911V6.53191H151.71V32.8628H160.224V6.53191ZM185.822 6.53191H215.705V19.6691H198.621V24.067H215.705V28.4649H198.621V32.8628H215.705V46H181.594V10.9298H185.822V6.53191Z" fill="white"/>
<path d="M14.2088 110V106.476V102.952V99.4282V95.9043V92.3803H10.6848V95.9043H7.16091V92.3803H10.6848V88.8564H14.2088V85.3324H17.7327V88.8564V92.3803V95.9043V99.4282V102.952V106.476V110H14.2088ZM0.113037 110V106.476V102.952V99.4282V95.9043V92.3803V88.8564V85.3324H3.63697V88.8564H7.16091V92.3803H3.63697V95.9043V99.4282V102.952V106.476V110H0.113037ZM35.3524 110H31.8285H28.3045H24.7806V106.476H21.2567V102.952H24.7806V99.4282H28.3045H31.8285H35.3524V95.9043H38.8763V99.4282V102.952V106.476V110H35.3524ZM31.8285 106.476H35.3524V102.952H31.8285H28.3045H24.7806V106.476H28.3045H31.8285ZM35.3524 95.9043H31.8285H28.3045H24.7806V92.3803H28.3045H31.8285H35.3524V95.9043ZM42.4003 110V106.476V102.952V99.4282V95.9043V92.3803H45.9242V95.9043H49.4481V99.4282H45.9242V102.952V106.476V110H42.4003ZM56.496 99.4282V95.9043H60.0199V99.4282H56.496ZM56.496 95.9043H52.9721H49.4481V92.3803H52.9721H56.496V95.9043ZM63.5439 110V106.476V102.952V99.4282V95.9043V92.3803H67.0678V95.9043V99.4282V102.952V106.476V110H63.5439ZM63.5439 88.8564V85.3324H67.0678V88.8564H63.5439ZM84.6875 110H81.1636H77.6396H74.1157V106.476H70.5918V102.952H74.1157V99.4282H77.6396H81.1636H84.6875V95.9043H88.2114V99.4282V102.952V106.476V110H84.6875ZM81.1636 106.476H84.6875V102.952H81.1636H77.6396H74.1157V106.476H77.6396H81.1636ZM84.6875 95.9043H81.1636H77.6396H74.1157V92.3803H77.6396H81.1636H84.6875V95.9043ZM105.831 110V106.476V102.952V99.4282V95.9043H109.355V99.4282V102.952V106.476V110H105.831ZM91.7354 110V106.476V102.952V99.4282V95.9043V92.3803H95.2593V95.9043H98.7832V99.4282H95.2593V102.952V106.476V110H91.7354ZM105.831 95.9043H102.307H98.7832V92.3803H102.307H105.831V95.9043ZM144.594 106.476H148.118V110H144.594H141.07H137.547H134.023H130.499V106.476V102.952V99.4282V95.9043V92.3803V88.8564V85.3324H134.023H137.547H141.07H144.594H148.118V88.8564H144.594H141.07H137.547H134.023V92.3803H137.547H141.07H144.594V95.9043H141.07H137.547H134.023V99.4282V102.952V106.476H137.547H141.07H144.594ZM165.738 110V106.476V102.952V99.4282V95.9043H169.262V99.4282V102.952V106.476V110H165.738ZM151.642 110V106.476V102.952V99.4282V95.9043V92.3803H155.166V95.9043H158.69V99.4282H155.166V102.952V106.476V110H151.642ZM165.738 95.9043H162.214H158.69V92.3803H162.214H165.738V95.9043ZM183.358 113.524H186.882V117.048H183.358H179.834H176.31H172.786V113.524H176.31H179.834H183.358ZM186.882 113.524V110H183.358H179.834H176.31V106.476H172.786V102.952V99.4282V95.9043H176.31V92.3803H179.834H183.358H186.882H190.406V95.9043V99.4282V102.952V106.476V110V113.524H186.882ZM183.358 106.476H186.882V102.952V99.4282V95.9043H183.358H179.834H176.31V99.4282V102.952V106.476H179.834H183.358ZM193.93 110V106.476V102.952V99.4282V95.9043V92.3803H197.453V95.9043V99.4282V102.952V106.476V110H193.93ZM193.93 88.8564V85.3324H197.453V88.8564H193.93ZM215.073 110V106.476V102.952V99.4282V95.9043H218.597V99.4282V102.952V106.476V110H215.073ZM200.977 110V106.476V102.952V99.4282V95.9043V92.3803H204.501V95.9043H208.025V99.4282H204.501V102.952V106.476V110H200.977ZM215.073 95.9043H211.549H208.025V92.3803H211.549H215.073V95.9043ZM236.217 106.476H239.741V110H236.217H232.693H229.169H225.645V106.476H229.169H232.693H236.217ZM225.645 106.476H222.121V102.952V99.4282V95.9043H225.645V99.4282H229.169H232.693H236.217V95.9043H239.741V99.4282V102.952H236.217H232.693H229.169H225.645V106.476ZM236.217 95.9043H232.693H229.169H225.645V92.3803H229.169H232.693H236.217V95.9043ZM257.36 106.476H260.884V110H257.36H253.836H250.312H246.789V106.476H250.312H253.836H257.36ZM246.789 106.476H243.265V102.952V99.4282V95.9043H246.789V99.4282H250.312H253.836H257.36V95.9043H260.884V99.4282V102.952H257.36H253.836H250.312H246.789V106.476ZM257.36 95.9043H253.836H250.312H246.789V92.3803H250.312H253.836H257.36V95.9043ZM264.408 110V106.476V102.952V99.4282V95.9043V92.3803H267.932V95.9043H271.456V99.4282H267.932V102.952V106.476V110H264.408ZM278.504 99.4282V95.9043H282.028V99.4282H278.504ZM278.504 95.9043H274.98H271.456V92.3803H274.98H278.504V95.9043ZM285.552 110V106.476V102.952V99.4282V95.9043V92.3803H289.076V95.9043V99.4282V102.952V106.476V110H285.552ZM285.552 88.8564V85.3324H289.076V88.8564H285.552ZM306.695 110V106.476V102.952V99.4282V95.9043H310.219V99.4282V102.952V106.476V110H306.695ZM292.6 110V106.476V102.952V99.4282V95.9043V92.3803H296.124V95.9043H299.648V99.4282H296.124V102.952V106.476V110H292.6ZM306.695 95.9043H303.172H299.648V92.3803H303.172H306.695V95.9043ZM324.315 113.524H327.839V117.048H324.315H320.791H317.267H313.743V113.524H317.267H320.791H324.315ZM327.839 113.524V110H324.315H320.791H317.267V106.476H313.743V102.952V99.4282V95.9043H317.267V92.3803H320.791H324.315H327.839H331.363V95.9043V99.4282V102.952V106.476V110V113.524H327.839ZM324.315 106.476H327.839V102.952V99.4282V95.9043H324.315H320.791H317.267V99.4282V102.952V106.476H320.791H324.315Z" fill="white"/>
<path d="M14.1157 142.38V138.856H17.6396V142.38H14.1157ZM10.5918 156.476H14.1157V160H10.5918H7.06782H3.54389V156.476H7.06782H10.5918ZM14.1157 156.476V152.952H17.6396V156.476H14.1157ZM3.54389 156.476H0.0199509V152.952V149.428V145.904V142.38V138.856H3.54389V142.38V145.904V149.428V152.952V156.476ZM14.1157 138.856H10.5918H7.06782H3.54389V135.332H7.06782H10.5918H14.1157V138.856ZM31.7354 156.476H35.2593V160H31.7354H28.2114H24.6875V156.476H28.2114H31.7354ZM35.2593 156.476V152.952V149.428V145.904H38.7832V149.428V152.952V156.476H35.2593ZM24.6875 156.476H21.1636V152.952V149.428V145.904H24.6875V149.428V152.952V156.476ZM35.2593 145.904H31.7354H28.2114H24.6875V142.38H28.2114H31.7354H35.2593V145.904ZM45.8311 160V156.476H49.3551V160H45.8311ZM45.8311 156.476H42.3072V152.952V149.428V145.904V142.38V138.856V135.332H45.8311V138.856V142.38V145.904V149.428V152.952V156.476ZM56.4029 160V156.476H59.9269V160H56.4029ZM56.4029 156.476H52.879V152.952V149.428V145.904V142.38V138.856V135.332H56.4029V138.856V142.38V145.904V149.428V152.952V156.476ZM77.5465 156.476H81.0705V160H77.5465H74.0226H70.4987H66.9747V156.476H70.4987H74.0226H77.5465ZM66.9747 156.476H63.4508V152.952V149.428V145.904H66.9747V149.428H70.4987H74.0226H77.5465V145.904H81.0705V149.428V152.952H77.5465H74.0226H70.4987H66.9747V156.476ZM77.5465 145.904H74.0226H70.4987H66.9747V142.38H70.4987H74.0226H77.5465V145.904ZM95.1662 163.524H98.6902V167.048H95.1662H91.6423H88.1183H84.5944V163.524H88.1183H91.6423H95.1662ZM98.6902 163.524V160H95.1662H91.6423H88.1183V156.476H84.5944V152.952V149.428V145.904H88.1183V142.38H91.6423H95.1662H98.6902H102.214V145.904V149.428V152.952V156.476V160V163.524H98.6902ZM95.1662 156.476H98.6902V152.952V149.428V145.904H95.1662H91.6423H88.1183V149.428V152.952V156.476H91.6423H95.1662ZM119.834 156.476H123.358V160H119.834H116.31H112.786H109.262V156.476H112.786H116.31H119.834ZM109.262 156.476H105.738V152.952V149.428V145.904H109.262V149.428H112.786H116.31H119.834V145.904H123.358V149.428V152.952H119.834H116.31H112.786H109.262V156.476ZM119.834 145.904H116.31H112.786H109.262V142.38H112.786H116.31H119.834V145.904ZM126.882 163.524V160V156.476V152.952H130.406V156.476V160V163.524H126.882ZM158.597 160V156.476V152.952V149.428V145.904V142.38V138.856H155.073H151.549V135.332H155.073H158.597H162.121H165.645H169.169V138.856H165.645H162.121V142.38V145.904V149.428V152.952V156.476V160H158.597ZM179.741 160V156.476H183.265V160H179.741ZM183.265 156.476V152.952V149.428H186.789V152.952V156.476H183.265ZM179.741 156.476H176.217V152.952V149.428H179.741V152.952V156.476ZM186.789 149.428V145.904V142.38V138.856V135.332H190.312V138.856V142.38V145.904V149.428H186.789ZM176.217 149.428H172.693V145.904V142.38V138.856V135.332H176.217V138.856V142.38V145.904V149.428ZM207.932 160V156.476V152.952V149.428V145.904V142.38H204.408V145.904H200.884V142.38H204.408V138.856H207.932V135.332H211.456V138.856V142.38V145.904V149.428V152.952V156.476V160H207.932ZM193.836 160V156.476V152.952V149.428V145.904V142.38V138.856V135.332H197.36V138.856H200.884V142.38H197.36V145.904V149.428V152.952V156.476V160H193.836Z" fill="white"/>
</svg>
